<svg xmlns="http://www.w3.org/2000/svg" width="215.736" height="117.897" viewBox="0 0 215.736 117.897">
  <g id="Grupo_936598" data-name="Grupo 936598" transform="translate(-253.187 -61.562)">
    <path id="Trazado_677985" data-name="Trazado 677985" d="M321.889,175.4c5.455-3.987,6.384-12,2.08-17.884a13.155,13.155,0,0,0-14.275-5.144,21.888,21.888,0,0,0-1.406-2.2c-6.38-8.73-18.1-11.017-26.188-5.107a17.384,17.384,0,0,0-6.922,11.9,8.586,8.586,0,0,0-5.653,1.611c-4.029,2.943-4.715,8.856-1.535,13.206s9.024,5.493,13.05,2.549c.079-.057.144-.119.218-.178,6.627,6.533,22.574,1.951,29.786-3.32.721-.526-4.452,4.735-3.839,4.119A12.356,12.356,0,0,0,321.889,175.4Z" fill="#90cc3a"/>
    <path id="Trazado_677986" data-name="Trazado 677986" d="M362.369,175.694a8.919,8.919,0,0,0,1.707-12.495,9.059,9.059,0,0,0-10-3.4,14.032,14.032,0,0,0-.963-1.515,13.217,13.217,0,0,0-18.41-3.211,12.679,12.679,0,0,0-5.045,8.391,6.3,6.3,0,0,0-4.01,1.2,6.712,6.712,0,0,0,7.915,10.83c.056-.041.1-.086.156-.128A13.115,13.115,0,0,0,350.58,176.8a12.57,12.57,0,0,0,1.434-1.225A8.784,8.784,0,0,0,362.369,175.694Z" fill="#81b526"/>
    <path id="Trazado_677987" data-name="Trazado 677987" d="M442.442,174.447a8.918,8.918,0,0,0,1.707-12.5,9.057,9.057,0,0,0-10-3.394,14.292,14.292,0,0,0-.962-1.516,13.217,13.217,0,0,0-18.411-3.21,12.682,12.682,0,0,0-5.045,8.391,6.3,6.3,0,0,0-4.009,1.2,6.711,6.711,0,0,0,7.914,10.83c.056-.041.1-.085.156-.127a13.116,13.116,0,0,0,16.865,1.434,12.565,12.565,0,0,0,1.434-1.224A8.785,8.785,0,0,0,442.442,174.447Z" fill="#81b526"/>
    <path id="Trazado_677988" data-name="Trazado 677988" d="M468.923,176.057c0,1.878-48.294,3.4-107.866,3.4s-107.87-1.524-107.87-3.4,48.295-3.4,107.87-3.4S468.923,174.178,468.923,176.057Z" fill="#90cc3a"/>
    <g id="Grupo_936378" data-name="Grupo 936378">
      <g id="Grupo_936374" data-name="Grupo 936374">
        <g id="Grupo_936373" data-name="Grupo 936373">
          <path id="Trazado_677989" data-name="Trazado 677989" d="M396.867,91.952a6.048,6.048,0,1,1-5.781-6.3A6.037,6.037,0,0,1,396.867,91.952Z" fill="#ebf9fc"/>
        </g>
      </g>
      <g id="Grupo_936375" data-name="Grupo 936375">
        <path id="Trazado_677990" data-name="Trazado 677990" d="M411.857,88.331a8.2,8.2,0,0,1-2.534-7.022c.238-1.528,4.534-4.186,4.534-4.186l-6.41-6.966s-3.006,4.075-4.543,4.181a7.676,7.676,0,0,1-6.444-3c-.908-1.249.268-6.163.268-6.163l-9.466-.408s.74,5-.265,6.163a6.57,6.57,0,0,1-5.92,2.014c-1.515-.3-3.964-4.719-3.964-4.719l-7.253,6.09s3.927,3.183,3.967,4.72a8.7,8.7,0,0,1-3.478,6.984c-1.26.9-6.17-.344-6.17-.344l-.53,9.46s5-.686,6.149.337a8.208,8.208,0,0,1,2.537,7.026c-.234,1.525-4.537,4.184-4.537,4.184l6.408,6.964s3-4.071,4.547-4.179a7.726,7.726,0,0,1,6.448,3c.907,1.251-.261,6.162-.261,6.162l9.459.408s-.748-5,.258-6.162a6.6,6.6,0,0,1,5.931-2.014c1.509.307,3.962,4.723,3.962,4.723l7.25-6.093s-3.923-3.182-3.969-4.722a8.714,8.714,0,0,1,3.479-6.982c1.26-.891,6.173.349,6.173.349l.524-9.457S413.011,89.355,411.857,88.331Zm-21.7,19.029a15.687,15.687,0,1,1,16.348-14.994A15.683,15.683,0,0,1,390.159,107.36Z" fill="#ebf9fc"/>
      </g>
      <g id="Grupo_936377" data-name="Grupo 936377">
        <g id="Grupo_936376" data-name="Grupo 936376">
          <path id="Trazado_677991" data-name="Trazado 677991" d="M402.811,92.419a11.987,11.987,0,1,1-11.458-12.495A11.981,11.981,0,0,1,402.811,92.419Z" fill="#ebf9fc"/>
        </g>
      </g>
    </g>
    <g id="Grupo_936379" data-name="Grupo 936379">
      <path id="Trazado_677992" data-name="Trazado 677992" d="M306.335,136.27l-.149-.606c41.017-10.14,54.274-33.093,54.4-33.323l.543.305C361,102.878,347.611,126.065,306.335,136.27Z" fill="#848fb7"/>
    </g>
    <g id="Grupo_936380" data-name="Grupo 936380">
      <path id="Trazado_677993" data-name="Trazado 677993" d="M333.137,138.016q-1.5,0-3.1-.092l.036-.623c14.9.89,22.639-4.884,22.716-4.943l.377.5C353.1,132.909,346.248,138.016,333.137,138.016Z" fill="#848fb7"/>
    </g>
    <g id="Grupo_936381" data-name="Grupo 936381">
      <path id="Trazado_677994" data-name="Trazado 677994" d="M308.536,135.967a.907.907,0,0,1-.906.906h-2.737a.908.908,0,0,1-.908-.906h0a.908.908,0,0,1,.908-.907h2.737a.907.907,0,0,1,.906.907Z" fill="#64b4d7"/>
    </g>
    <g id="Grupo_936382" data-name="Grupo 936382">
      <path id="Trazado_677995" data-name="Trazado 677995" d="M308.536,137.612a.907.907,0,0,1-.906.907h-2.737a.908.908,0,0,1-.908-.907h0a.907.907,0,0,1,.908-.907h2.737a.906.906,0,0,1,.906.907Z" fill="#64b4d7"/>
    </g>
    <g id="Grupo_936383" data-name="Grupo 936383">
      <path id="Trazado_677996" data-name="Trazado 677996" d="M308.536,139.258a.906.906,0,0,1-.906.9h-2.737a.907.907,0,0,1-.908-.9h0a.906.906,0,0,1,.908-.906h2.737a.905.905,0,0,1,.906.906Z" fill="#64b4d7"/>
    </g>
    <g id="Grupo_936384" data-name="Grupo 936384">
      <path id="Trazado_677997" data-name="Trazado 677997" d="M308.536,140.9a.906.906,0,0,1-.906.906h-2.737a.907.907,0,0,1-.908-.906h0a.907.907,0,0,1,.908-.906h2.737a.906.906,0,0,1,.906.906Z" fill="#64b4d7"/>
    </g>
    <g id="Grupo_936385" data-name="Grupo 936385">
      <path id="Trazado_677998" data-name="Trazado 677998" d="M332.33,135.967a.906.906,0,0,1-.906.906h-2.735a.907.907,0,0,1-.907-.906h0a.908.908,0,0,1,.907-.907h2.735a.907.907,0,0,1,.906.907Z" fill="#64b4d7"/>
    </g>
    <g id="Grupo_936386" data-name="Grupo 936386">
      <path id="Trazado_677999" data-name="Trazado 677999" d="M332.33,137.612a.907.907,0,0,1-.906.907h-2.735a.908.908,0,0,1-.907-.907h0a.906.906,0,0,1,.907-.907h2.735a.905.905,0,0,1,.906.907Z" fill="#64b4d7"/>
    </g>
    <g id="Grupo_936387" data-name="Grupo 936387">
      <path id="Trazado_678000" data-name="Trazado 678000" d="M332.33,139.258a.9.9,0,0,1-.906.9h-2.735a.906.906,0,0,1-.907-.9h0a.905.905,0,0,1,.907-.906h2.735a.9.9,0,0,1,.906.906Z" fill="#64b4d7"/>
    </g>
    <g id="Grupo_936388" data-name="Grupo 936388">
      <path id="Trazado_678001" data-name="Trazado 678001" d="M332.33,140.9a.905.905,0,0,1-.906.906h-2.735a.906.906,0,0,1-.907-.906h0a.906.906,0,0,1,.907-.906h2.735a.905.905,0,0,1,.906.906Z" fill="#64b4d7"/>
    </g>
    <g id="Grupo_936431" data-name="Grupo 936431">
      <g id="Grupo_936389" data-name="Grupo 936389">
        <rect id="Rectángulo_329574" data-name="Rectángulo 329574" width="30.988" height="1.899" transform="translate(367.957 169.888)" fill="#464f72"/>
      </g>
      <g id="Grupo_936390" data-name="Grupo 936390">
        <path id="Trazado_678002" data-name="Trazado 678002" d="M366.785,111.086l8.537,13.88.691-.583-8.766-14.247Z" fill="#464f72"/>
      </g>
      <g id="Grupo_936391" data-name="Grupo 936391">
        <path id="Trazado_678003" data-name="Trazado 678003" d="M387.635,109.341,378.62,124.56l-.761-.618,9.256-15.623Z" fill="#464f72"/>
      </g>
      <g id="Grupo_936392" data-name="Grupo 936392">
        <path id="Trazado_678004" data-name="Trazado 678004" d="M366.785,95.412l8.537,13.881.691-.582-8.766-14.248Z" fill="#464f72"/>
      </g>
      <g id="Grupo_936393" data-name="Grupo 936393">
        <path id="Trazado_678005" data-name="Trazado 678005" d="M387.357,95.412l-8.537,13.881-.689-.582,8.763-14.248Z" fill="#464f72"/>
      </g>
      <g id="Grupo_936394" data-name="Grupo 936394">
        <rect id="Rectángulo_329575" data-name="Rectángulo 329575" width="36.503" height="0.895" transform="matrix(0.552, -0.834, 0.834, 0.552, 355.963, 139.474)" fill="#464f72"/>
      </g>
      <g id="Grupo_936395" data-name="Grupo 936395">
        <path id="Trazado_678006" data-name="Trazado 678006" d="M377.353,108.655l19.373,32.062.634-.605-19.372-32.063Z" fill="#464f72"/>
      </g>
      <g id="Grupo_936396" data-name="Grupo 936396">
        <rect id="Rectángulo_329576" data-name="Rectángulo 329576" width="54.509" height="0.893" transform="translate(353.634 124.511) rotate(-52.761)" fill="#464f72"/>
      </g>
      <g id="Grupo_936397" data-name="Grupo 936397">
        <rect id="Rectángulo_329577" data-name="Rectángulo 329577" width="0.893" height="54.508" transform="translate(367.157 81.655) rotate(-37.237)" fill="#464f72"/>
      </g>
      <g id="Grupo_936398" data-name="Grupo 936398">
        <rect id="Rectángulo_329578" data-name="Rectángulo 329578" width="3.801" height="53.192" transform="translate(375.322 79.742)" fill="#848fb7"/>
      </g>
      <g id="Grupo_936399" data-name="Grupo 936399">
        <rect id="Rectángulo_329579" data-name="Rectángulo 329579" width="1.328" height="18.442" transform="translate(376.555 63.674)" fill="#848fb7"/>
      </g>
      <g id="Grupo_936400" data-name="Grupo 936400">
        <path id="Trazado_678007" data-name="Trazado 678007" d="M365.426,80.717l-1.252-.684,13.014-18.472.551,1.779Z" fill="#848fb7"/>
      </g>
      <g id="Grupo_936401" data-name="Grupo 936401">
        <path id="Trazado_678008" data-name="Trazado 678008" d="M389.011,80.717l1.253-.684L377.188,61.562l-.487,1.779Z" fill="#848fb7"/>
      </g>
      <g id="Grupo_936402" data-name="Grupo 936402">
        <rect id="Rectángulo_329580" data-name="Rectángulo 329580" width="3.799" height="45.213" transform="translate(364.158 79.742)" fill="#848fb7"/>
      </g>
      <g id="Grupo_936403" data-name="Grupo 936403">
        <rect id="Rectángulo_329581" data-name="Rectángulo 329581" width="2.259" height="45.213" transform="translate(364.898 79.742)" fill="#6d76a1"/>
      </g>
      <g id="Grupo_936404" data-name="Grupo 936404">
        <rect id="Rectángulo_329582" data-name="Rectángulo 329582" width="3.799" height="45.213" transform="translate(386.48 79.742)" fill="#848fb7"/>
      </g>
      <g id="Grupo_936405" data-name="Grupo 936405">
        <path id="Trazado_678009" data-name="Trazado 678009" d="M367.957,177.1h-3.8L375.2,124.955l3.982-.572Z" fill="#848fb7"/>
      </g>
      <g id="Grupo_936406" data-name="Grupo 936406">
        <path id="Trazado_678010" data-name="Trazado 678010" d="M366.657,177.1h-1.241l11.053-52.024.143,5.058Z" fill="#6d76a1"/>
      </g>
      <g id="Grupo_936407" data-name="Grupo 936407">
        <rect id="Rectángulo_329583" data-name="Rectángulo 329583" width="25.441" height="1.9" transform="translate(364.158 107.761)" fill="#848fb7"/>
      </g>
      <g id="Grupo_936408" data-name="Grupo 936408">
        <rect id="Rectángulo_329584" data-name="Rectángulo 329584" width="50.335" height="1.899" transform="translate(352.056 123.434)" fill="#848fb7"/>
      </g>
      <g id="Grupo_936409" data-name="Grupo 936409">
        <rect id="Rectángulo_329585" data-name="Rectángulo 329585" width="36.42" height="1.898" transform="translate(358.666 151.841)" fill="#848fb7"/>
      </g>
      <g id="Grupo_936410" data-name="Grupo 936410">
        <rect id="Rectángulo_329586" data-name="Rectángulo 329586" width="32.179" height="1.9" transform="translate(354.302 172.737)" fill="#464f72"/>
      </g>
      <g id="Grupo_936411" data-name="Grupo 936411">
        <rect id="Rectángulo_329587" data-name="Rectángulo 329587" width="44.168" height="1.899" transform="translate(354.302 139.017)" fill="#848fb7"/>
      </g>
      <g id="Grupo_936412" data-name="Grupo 936412">
        <rect id="Rectángulo_329588" data-name="Rectángulo 329588" width="58.163" height="0.893" transform="matrix(0.605, -0.796, 0.796, 0.605, 353.634, 174.378)" fill="#464f72"/>
      </g>
      <g id="Grupo_936413" data-name="Grupo 936413">
        <path id="Trazado_678011" data-name="Trazado 678011" d="M364.574,128.184l35.19,47.125.783-.607-35.189-47.126Z" fill="#464f72"/>
      </g>
      <g id="Grupo_936414" data-name="Grupo 936414">
        <rect id="Rectángulo_329589" data-name="Rectángulo 329589" width="0.667" height="4.202" transform="translate(353.635 125.052)" fill="#848fb7"/>
      </g>
      <g id="Grupo_936415" data-name="Grupo 936415">
        <rect id="Rectángulo_329590" data-name="Rectángulo 329590" width="0.667" height="4.201" transform="translate(360.528 94.463)" fill="#848fb7"/>
      </g>
      <g id="Grupo_936416" data-name="Grupo 936416">
        <rect id="Rectángulo_329591" data-name="Rectángulo 329591" width="0.668" height="4.201" transform="translate(393.299 94.463)" fill="#848fb7"/>
      </g>
      <g id="Grupo_936417" data-name="Grupo 936417">
        <rect id="Rectángulo_329592" data-name="Rectángulo 329592" width="0.666" height="4.202" transform="translate(400.185 125.052)" fill="#848fb7"/>
      </g>
      <g id="Grupo_936418" data-name="Grupo 936418">
        <path id="Trazado_678012" data-name="Trazado 678012" d="M360.254,94.031l-.787-.536,7.755-11.379.681.69Z" fill="#848fb7"/>
      </g>
      <g id="Grupo_936419" data-name="Grupo 936419">
        <path id="Trazado_678013" data-name="Trazado 678013" d="M356.994,175.523H353.1l11.061-52.09,3.8.41Z" fill="#848fb7"/>
      </g>
      <g id="Grupo_936420" data-name="Grupo 936420">
        <path id="Trazado_678014" data-name="Trazado 678014" d="M355.963,175.523h-1.994l10.9-50.445h2.053Z" fill="#6d76a1"/>
      </g>
      <g id="Grupo_936421" data-name="Grupo 936421">
        <path id="Trazado_678015" data-name="Trazado 678015" d="M396.935,175.523h3.916l-11.162-52.468-3.717.788Z" fill="#848fb7"/>
      </g>
      <g id="Grupo_936422" data-name="Grupo 936422">
        <path id="Trazado_678016" data-name="Trazado 678016" d="M397.8,175.523h2.228l-10.605-50.19h-2.066Z" fill="#6d76a1"/>
      </g>
      <g id="Grupo_936423" data-name="Grupo 936423">
        <path id="Trazado_678017" data-name="Trazado 678017" d="M386.4,177.1h3.857l-11.223-53.014-3.8.415Z" fill="#848fb7"/>
      </g>
      <g id="Grupo_936424" data-name="Grupo 936424">
        <rect id="Rectángulo_329593" data-name="Rectángulo 329593" width="1.483" height="44.238" transform="translate(376.611 80.717)" fill="#6d76a1"/>
      </g>
      <g id="Grupo_936425" data-name="Grupo 936425">
        <path id="Trazado_678018" data-name="Trazado 678018" d="M388.1,177.1h1.223l-11.224-52.331-1.483.184Z" fill="#6d76a1"/>
      </g>
      <g id="Grupo_936426" data-name="Grupo 936426">
        <path id="Trazado_678019" data-name="Trazado 678019" d="M389.51,123.434h-2.154l-.1-43.128h2.258Z" fill="#6d76a1"/>
      </g>
      <g id="Grupo_936427" data-name="Grupo 936427">
        <rect id="Rectángulo_329594" data-name="Rectángulo 329594" width="35.296" height="1.898" transform="translate(359.467 93.514)" fill="#848fb7"/>
      </g>
      <g id="Grupo_936428" data-name="Grupo 936428">
        <path id="Trazado_678020" data-name="Trazado 678020" d="M393.932,94.309l.831-.467-6.748-12h-1.121Z" fill="#848fb7"/>
      </g>
      <g id="Grupo_936429" data-name="Grupo 936429">
        <rect id="Rectángulo_329595" data-name="Rectángulo 329595" width="26.121" height="2.374" transform="translate(364.158 79.742)" fill="#848fb7"/>
      </g>
      <g id="Grupo_936430" data-name="Grupo 936430">
        <rect id="Rectángulo_329596" data-name="Rectángulo 329596" width="24.549" height="1.039" transform="translate(364.898 80.306)" fill="#6d76a1"/>
      </g>
    </g>
    <g id="Grupo_936432" data-name="Grupo 936432">
      <path id="Trazado_678021" data-name="Trazado 678021" d="M362.507,98.924a.654.654,0,0,1-.655.654h-1.979a.655.655,0,0,1-.656-.654h0a.656.656,0,0,1,.656-.655h1.979a.655.655,0,0,1,.655.655Z" fill="#c1e4fa"/>
    </g>
    <g id="Grupo_936433" data-name="Grupo 936433">
      <path id="Trazado_678022" data-name="Trazado 678022" d="M362.507,100.113a.656.656,0,0,1-.655.656h-1.979a.656.656,0,0,1-.656-.656h0a.656.656,0,0,1,.656-.655h1.979a.655.655,0,0,1,.655.655Z" fill="#c1e4fa"/>
    </g>
    <g id="Grupo_936434" data-name="Grupo 936434">
      <path id="Trazado_678023" data-name="Trazado 678023" d="M362.507,101.3a.655.655,0,0,1-.655.655h-1.979a.656.656,0,0,1-.656-.655h0a.656.656,0,0,1,.656-.655h1.979a.655.655,0,0,1,.655.655Z" fill="#c1e4fa"/>
    </g>
    <g id="Grupo_936435" data-name="Grupo 936435">
      <path id="Trazado_678024" data-name="Trazado 678024" d="M362.507,102.493a.655.655,0,0,1-.655.655h-1.979a.656.656,0,0,1-.656-.655h0a.656.656,0,0,1,.656-.655h1.979a.655.655,0,0,1,.655.655Z" fill="#c1e4fa"/>
    </g>
    <g id="Grupo_936436" data-name="Grupo 936436">
      <path id="Trazado_678025" data-name="Trazado 678025" d="M395.277,98.863a.656.656,0,0,1-.655.656h-1.979a.656.656,0,0,1-.655-.656h0a.655.655,0,0,1,.655-.655h1.979a.656.656,0,0,1,.655.655Z" fill="#c1e4fa"/>
    </g>
    <g id="Grupo_936437" data-name="Grupo 936437">
      <path id="Trazado_678026" data-name="Trazado 678026" d="M395.277,100.053a.656.656,0,0,1-.655.655h-1.979a.655.655,0,0,1-.655-.655h0a.655.655,0,0,1,.655-.655h1.979a.655.655,0,0,1,.655.655Z" fill="#c1e4fa"/>
    </g>
    <g id="Grupo_936438" data-name="Grupo 936438">
      <path id="Trazado_678027" data-name="Trazado 678027" d="M395.277,101.243a.655.655,0,0,1-.655.655h-1.979a.655.655,0,0,1-.655-.655h0a.655.655,0,0,1,.655-.655h1.979a.655.655,0,0,1,.655.655Z" fill="#c1e4fa"/>
    </g>
    <g id="Grupo_936439" data-name="Grupo 936439">
      <path id="Trazado_678028" data-name="Trazado 678028" d="M395.277,102.433a.656.656,0,0,1-.655.655h-1.979a.655.655,0,0,1-.655-.655h0a.656.656,0,0,1,.655-.656h1.979a.656.656,0,0,1,.655.656Z" fill="#c1e4fa"/>
    </g>
    <g id="Grupo_936440" data-name="Grupo 936440">
      <path id="Trazado_678029" data-name="Trazado 678029" d="M355.613,128.382a.656.656,0,0,1-.656.655h-1.979a.655.655,0,0,1-.655-.655h0a.655.655,0,0,1,.655-.655h1.979a.656.656,0,0,1,.656.655Z" fill="#c1e4fa"/>
    </g>
    <g id="Grupo_936441" data-name="Grupo 936441">
      <path id="Trazado_678030" data-name="Trazado 678030" d="M355.613,129.572a.656.656,0,0,1-.656.655h-1.979a.655.655,0,0,1-.655-.655h0a.655.655,0,0,1,.655-.655h1.979a.656.656,0,0,1,.656.655Z" fill="#c1e4fa"/>
    </g>
    <g id="Grupo_936442" data-name="Grupo 936442">
      <path id="Trazado_678031" data-name="Trazado 678031" d="M355.613,130.762a.656.656,0,0,1-.656.655h-1.979a.655.655,0,0,1-.655-.655h0a.656.656,0,0,1,.655-.656h1.979a.656.656,0,0,1,.656.656Z" fill="#c1e4fa"/>
    </g>
    <g id="Grupo_936443" data-name="Grupo 936443">
      <path id="Trazado_678032" data-name="Trazado 678032" d="M355.613,131.951a.656.656,0,0,1-.656.655h-1.979a.655.655,0,0,1-.655-.655h0a.655.655,0,0,1,.655-.655h1.979a.656.656,0,0,1,.656.655Z" fill="#c1e4fa"/>
    </g>
    <g id="Grupo_936444" data-name="Grupo 936444">
      <path id="Trazado_678033" data-name="Trazado 678033" d="M402.164,128.442a.656.656,0,0,1-.655.656H399.53a.656.656,0,0,1-.655-.656h0a.655.655,0,0,1,.655-.655h1.979a.655.655,0,0,1,.655.655Z" fill="#c1e4fa"/>
    </g>
    <g id="Grupo_936445" data-name="Grupo 936445">
      <path id="Trazado_678034" data-name="Trazado 678034" d="M402.164,129.632a.655.655,0,0,1-.655.655H399.53a.655.655,0,0,1-.655-.655h0a.655.655,0,0,1,.655-.655h1.979a.655.655,0,0,1,.655.655Z" fill="#c1e4fa"/>
    </g>
    <g id="Grupo_936446" data-name="Grupo 936446">
      <path id="Trazado_678035" data-name="Trazado 678035" d="M402.164,130.822a.656.656,0,0,1-.655.657H399.53a.656.656,0,0,1-.655-.657h0a.655.655,0,0,1,.655-.655h1.979a.655.655,0,0,1,.655.655Z" fill="#c1e4fa"/>
    </g>
    <g id="Grupo_936447" data-name="Grupo 936447">
      <path id="Trazado_678036" data-name="Trazado 678036" d="M402.164,132.012a.655.655,0,0,1-.655.655H399.53a.655.655,0,0,1-.655-.655h0a.656.656,0,0,1,.655-.656h1.979a.656.656,0,0,1,.655.656Z" fill="#c1e4fa"/>
    </g>
    <g id="Grupo_936448" data-name="Grupo 936448">
      <rect id="Rectángulo_329597" data-name="Rectángulo 329597" width="55.777" height="33.456" transform="translate(287.941 141.182)" fill="#c1e4fa"/>
    </g>
    <g id="Grupo_936449" data-name="Grupo 936449">
      <rect id="Rectángulo_329598" data-name="Rectángulo 329598" width="15.092" height="33.456" transform="translate(287.941 141.182)" fill="#64b4d7"/>
    </g>
    <g id="Grupo_936465" data-name="Grupo 936465">
      <g id="Grupo_936450" data-name="Grupo 936450">
        <rect id="Rectángulo_329599" data-name="Rectángulo 329599" width="12.598" height="2.025" transform="translate(286.341 145.044)" fill="#64b4d7"/>
      </g>
      <g id="Grupo_936451" data-name="Grupo 936451">
        <rect id="Rectángulo_329600" data-name="Rectángulo 329600" width="2.593" height="2.025" transform="translate(296.346 145.044)" fill="#4ca1bf"/>
      </g>
      <g id="Grupo_936452" data-name="Grupo 936452">
        <path id="Trazado_678037" data-name="Trazado 678037" d="M284.535,148.079h16.4l-.556-2.015H285.091Z" fill="#4ca1bf"/>
      </g>
      <g id="Grupo_936453" data-name="Grupo 936453">
        <rect id="Rectángulo_329601" data-name="Rectángulo 329601" width="12.088" height="14.333" transform="translate(284.535 148.079)" fill="#464f72"/>
      </g>
      <g id="Grupo_936454" data-name="Grupo 936454">
        <rect id="Rectángulo_329602" data-name="Rectángulo 329602" width="5.398" height="14.333" transform="translate(295.533 148.079)" fill="#343c56"/>
      </g>
      <g id="Grupo_936455" data-name="Grupo 936455">
        <path id="Trazado_678038" data-name="Trazado 678038" d="M295.533,148.079l.418-2.015h4.424l.556,2.015Z" fill="#3c93aa"/>
      </g>
      <g id="Grupo_936459" data-name="Grupo 936459">
        <g id="Grupo_936456" data-name="Grupo 936456">
          <path id="Trazado_678039" data-name="Trazado 678039" d="M288.726,155.557h3.706l-1.853-3.7Z" fill="#4ca1bf"/>
        </g>
        <g id="Grupo_936457" data-name="Grupo 936457">
          <path id="Trazado_678040" data-name="Trazado 678040" d="M292.072,155.306l-1.494-2.909-1.494,2.909Z" fill="#ffcf03"/>
        </g>
        <g id="Grupo_936458" data-name="Grupo 936458">
          <path id="Trazado_678041" data-name="Trazado 678041" d="M290.882,155.065l.028-1.314-.338.455-.092-1.156-.008,1.508.273-.379Z" fill="#6d76a1"/>
        </g>
      </g>
      <g id="Grupo_936460" data-name="Grupo 936460">
        <rect id="Rectángulo_329603" data-name="Rectángulo 329603" width="3.797" height="2.268" transform="translate(296.346 149.86)" fill="#848fb7"/>
      </g>
      <g id="Grupo_936461" data-name="Grupo 936461">
        <rect id="Rectángulo_329604" data-name="Rectángulo 329604" width="2.858" height="0.278" transform="translate(296.814 150.149)" fill="#464f72"/>
      </g>
      <g id="Grupo_936462" data-name="Grupo 936462">
        <rect id="Rectángulo_329605" data-name="Rectángulo 329605" width="2.858" height="0.277" transform="translate(296.814 150.637)" fill="#464f72"/>
      </g>
      <g id="Grupo_936463" data-name="Grupo 936463">
        <rect id="Rectángulo_329606" data-name="Rectángulo 329606" width="2.858" height="0.28" transform="translate(296.814 151.134)" fill="#464f72"/>
      </g>
      <g id="Grupo_936464" data-name="Grupo 936464">
        <rect id="Rectángulo_329607" data-name="Rectángulo 329607" width="2.858" height="0.279" transform="translate(296.814 151.62)" fill="#464f72"/>
      </g>
    </g>
    <g id="Grupo_936466" data-name="Grupo 936466">
      <rect id="Rectángulo_329608" data-name="Rectángulo 329608" width="21.222" height="35.791" transform="matrix(0.001, -1, 1, 0.001, 305.91, 168.753)" fill="#848fb7"/>
    </g>
    <g id="Grupo_936467" data-name="Grupo 936467">
      <rect id="Rectángulo_329609" data-name="Rectángulo 329609" width="15.979" height="1.555" transform="translate(336.338 166.169) rotate(-89.94)" fill="#464f72"/>
    </g>
    <g id="Grupo_936468" data-name="Grupo 936468">
      <rect id="Rectángulo_329610" data-name="Rectángulo 329610" width="15.979" height="1.555" transform="translate(338.867 166.169) rotate(-89.94)" fill="#464f72"/>
    </g>
    <g id="Grupo_936469" data-name="Grupo 936469">
      <rect id="Rectángulo_329611" data-name="Rectángulo 329611" width="15.98" height="1.557" transform="translate(333.618 166.167) rotate(-89.93)" fill="#464f72"/>
    </g>
    <g id="Grupo_936470" data-name="Grupo 936470">
      <rect id="Rectángulo_329612" data-name="Rectángulo 329612" width="15.98" height="1.556" transform="matrix(0.001, -1, 1, 0.001, 330.836, 166.163)" fill="#464f72"/>
    </g>
    <g id="Grupo_936471" data-name="Grupo 936471">
      <rect id="Rectángulo_329613" data-name="Rectángulo 329613" width="15.981" height="1.556" transform="translate(328.117 166.161) rotate(-89.92)" fill="#464f72"/>
    </g>
    <g id="Grupo_936472" data-name="Grupo 936472">
      <rect id="Rectángulo_329614" data-name="Rectángulo 329614" width="15.98" height="1.557" transform="matrix(0.001, -1, 1, 0.001, 325.353, 166.156)" fill="#464f72"/>
    </g>
    <g id="Grupo_936473" data-name="Grupo 936473">
      <rect id="Rectángulo_329615" data-name="Rectángulo 329615" width="15.98" height="1.555" transform="translate(322.636 166.152) rotate(-89.933)" fill="#464f72"/>
    </g>
    <g id="Grupo_936474" data-name="Grupo 936474">
      <rect id="Rectángulo_329616" data-name="Rectángulo 329616" width="15.981" height="1.557" transform="translate(319.852 166.148) rotate(-89.923)" fill="#464f72"/>
    </g>
    <g id="Grupo_936475" data-name="Grupo 936475">
      <rect id="Rectángulo_329617" data-name="Rectángulo 329617" width="15.98" height="1.556" transform="translate(317.134 166.145) rotate(-89.926)" fill="#464f72"/>
    </g>
    <g id="Grupo_936476" data-name="Grupo 936476">
      <rect id="Rectángulo_329618" data-name="Rectángulo 329618" width="15.98" height="1.556" transform="translate(313.831 166.142) rotate(-89.93)" fill="#464f72"/>
    </g>
    <g id="Grupo_936477" data-name="Grupo 936477">
      <rect id="Rectángulo_329619" data-name="Rectángulo 329619" width="15.981" height="1.555" transform="translate(311.047 166.14) rotate(-89.92)" fill="#464f72"/>
    </g>
    <g id="Grupo_936478" data-name="Grupo 936478">
      <rect id="Rectángulo_329620" data-name="Rectángulo 329620" width="15.98" height="1.556" transform="translate(308.329 166.134) rotate(-89.926)" fill="#464f72"/>
    </g>
    <g id="Grupo_936480" data-name="Grupo 936480">
      <g id="Grupo_936479" data-name="Grupo 936479">
        <path id="Trazado_678042" data-name="Trazado 678042" d="M325.352,121.289a2.626,2.626,0,1,1,2.628-2.626A2.63,2.63,0,0,1,325.352,121.289Zm0-4.082a1.455,1.455,0,1,0,1.457,1.456A1.458,1.458,0,0,0,325.352,117.207Z" fill="#64b4d7"/>
      </g>
    </g>
    <g id="Grupo_936511" data-name="Grupo 936511">
      <g id="Grupo_936495" data-name="Grupo 936495">
        <g id="Grupo_936482" data-name="Grupo 936482">
          <g id="Grupo_936481" data-name="Grupo 936481">
            <rect id="Rectángulo_329621" data-name="Rectángulo 329621" width="0.914" height="2.173" transform="translate(344.447 110.177) rotate(-88.904)" fill="#848fb7"/>
          </g>
        </g>
        <g id="Grupo_936484" data-name="Grupo 936484">
          <g id="Grupo_936483" data-name="Grupo 936483">
            <rect id="Rectángulo_329622" data-name="Rectángulo 329622" width="0.913" height="2.173" transform="translate(341.212 110.116) rotate(-88.96)" fill="#848fb7"/>
          </g>
        </g>
        <g id="Grupo_936486" data-name="Grupo 936486">
          <g id="Grupo_936485" data-name="Grupo 936485">
            <rect id="Rectángulo_329623" data-name="Rectángulo 329623" width="0.914" height="2.173" transform="translate(337.977 110.054) rotate(-88.904)" fill="#848fb7"/>
          </g>
        </g>
        <g id="Grupo_936488" data-name="Grupo 936488">
          <g id="Grupo_936487" data-name="Grupo 936487">
            <rect id="Rectángulo_329624" data-name="Rectángulo 329624" width="0.914" height="2.173" transform="translate(334.74 109.993) rotate(-88.96)" fill="#848fb7"/>
          </g>
        </g>
        <g id="Grupo_936490" data-name="Grupo 936490">
          <g id="Grupo_936489" data-name="Grupo 936489">
            <rect id="Rectángulo_329625" data-name="Rectángulo 329625" width="0.915" height="2.174" transform="translate(331.503 109.927) rotate(-88.772)" fill="#848fb7"/>
          </g>
        </g>
        <g id="Grupo_936492" data-name="Grupo 936492">
          <g id="Grupo_936491" data-name="Grupo 936491">
            <path id="Trazado_678043" data-name="Trazado 678043" d="M328.285,108.954l-.017.914,2.172.042.019-.914Z" fill="#848fb7"/>
          </g>
        </g>
        <g id="Grupo_936494" data-name="Grupo 936494">
          <g id="Grupo_936493" data-name="Grupo 936493">
            <rect id="Rectángulo_329626" data-name="Rectángulo 329626" width="0.914" height="2.173" transform="translate(325.033 109.806) rotate(-88.896)" fill="#848fb7"/>
          </g>
        </g>
      </g>
      <g id="Grupo_936510" data-name="Grupo 936510">
        <g id="Grupo_936497" data-name="Grupo 936497">
          <g id="Grupo_936496" data-name="Grupo 936496">
            <rect id="Rectángulo_329627" data-name="Rectángulo 329627" width="0.915" height="2.174" transform="translate(321.797 109.745) rotate(-88.897)" fill="#848fb7"/>
          </g>
        </g>
        <g id="Grupo_936499" data-name="Grupo 936499">
          <g id="Grupo_936498" data-name="Grupo 936498">
            <rect id="Rectángulo_329628" data-name="Rectángulo 329628" width="0.914" height="2.173" transform="translate(318.561 109.683) rotate(-88.959)" fill="#848fb7"/>
          </g>
        </g>
        <g id="Grupo_936501" data-name="Grupo 936501">
          <g id="Grupo_936500" data-name="Grupo 936500">
            <rect id="Rectángulo_329629" data-name="Rectángulo 329629" width="0.916" height="2.174" transform="translate(315.324 109.621) rotate(-88.837)" fill="#848fb7"/>
          </g>
        </g>
        <g id="Grupo_936503" data-name="Grupo 936503">
          <g id="Grupo_936502" data-name="Grupo 936502">
            <rect id="Rectángulo_329630" data-name="Rectángulo 329630" width="0.914" height="2.174" transform="matrix(0.018, -1, 1, 0.018, 312.089, 109.56)" fill="#848fb7"/>
          </g>
        </g>
        <g id="Grupo_936505" data-name="Grupo 936505">
          <g id="Grupo_936504" data-name="Grupo 936504">
            <rect id="Rectángulo_329631" data-name="Rectángulo 329631" width="0.913" height="2.174" transform="matrix(0.019, -1, 1, 0.019, 308.853, 109.496)" fill="#848fb7"/>
          </g>
        </g>
        <g id="Grupo_936507" data-name="Grupo 936507">
          <g id="Grupo_936506" data-name="Grupo 936506">
            <rect id="Rectángulo_329632" data-name="Rectángulo 329632" width="0.914" height="2.173" transform="matrix(0.018, -1, 1, 0.018, 305.617, 109.436)" fill="#848fb7"/>
          </g>
        </g>
        <g id="Grupo_936509" data-name="Grupo 936509">
          <g id="Grupo_936508" data-name="Grupo 936508">
            <rect id="Rectángulo_329633" data-name="Rectángulo 329633" width="0.914" height="2.173" transform="matrix(0.02, -1, 1, 0.02, 302.381, 109.372)" fill="#848fb7"/>
          </g>
        </g>
      </g>
    </g>
    <g id="Grupo_936518" data-name="Grupo 936518">
      <g id="Grupo_936514" data-name="Grupo 936514">
        <g id="Grupo_936513" data-name="Grupo 936513">
          <g id="Grupo_936512" data-name="Grupo 936512">
            <rect id="Rectángulo_329634" data-name="Rectángulo 329634" width="1.171" height="5.544" transform="matrix(0.702, -0.713, 0.713, 0.702, 345.504, 98.051)" fill="#ffb502"/>
          </g>
        </g>
      </g>
      <g id="Grupo_936517" data-name="Grupo 936517">
        <g id="Grupo_936516" data-name="Grupo 936516">
          <g id="Grupo_936515" data-name="Grupo 936515">
            <rect id="Rectángulo_329635" data-name="Rectángulo 329635" width="5.487" height="1.171" transform="translate(345.539 101.107) rotate(-45.066)" fill="#ffb502"/>
          </g>
        </g>
      </g>
    </g>
    <g id="Grupo_936521" data-name="Grupo 936521">
      <g id="Grupo_936520" data-name="Grupo 936520">
        <g id="Grupo_936519" data-name="Grupo 936519">
          <rect id="Rectángulo_329636" data-name="Rectángulo 329636" width="10.779" height="0.833" transform="translate(416.726 107.283)" fill="#27355c"/>
        </g>
      </g>
    </g>
    <g id="Grupo_936524" data-name="Grupo 936524">
      <g id="Grupo_936523" data-name="Grupo 936523">
        <g id="Grupo_936522" data-name="Grupo 936522">
          <rect id="Rectángulo_329637" data-name="Rectángulo 329637" width="5.943" height="0.831" transform="translate(420.934 104.561)" fill="#27355c"/>
        </g>
      </g>
    </g>
    <g id="Grupo_936573" data-name="Grupo 936573">
      <g id="Grupo_936527" data-name="Grupo 936527">
        <g id="Grupo_936525" data-name="Grupo 936525">
          <path id="Trazado_678044" data-name="Trazado 678044" d="M449.913,129.04a2.653,2.653,0,0,0-3.117-.591c-1.854.994-4.223,4.569-7.122,4.474s-3.824-1.832-4.593-2.911-.562-1.874-1.08-2.453-1.177.06-.365,2.091c.386.971,1.73,6,5.168,6.75C443.307,137.391,451.9,131.648,449.913,129.04Z" fill="#fbc6b4"/>
        </g>
        <g id="Grupo_936526" data-name="Grupo 936526">
          <path id="Trazado_678045" data-name="Trazado 678045" d="M449.462,128.042s1.733,1.52-.456,4.161a18.332,18.332,0,0,1-3.507,3.489,8.83,8.83,0,0,1-3.766-3.947S447.331,125.554,449.462,128.042Z" fill="#eda503"/>
        </g>
      </g>
      <g id="Grupo_936528" data-name="Grupo 936528">
        <path id="Trazado_678046" data-name="Trazado 678046" d="M455.411,128l-.006-.01a10.27,10.27,0,0,0-3.729-1.011c-2.484-.346-6.568-.134-7.492,4.207a26.3,26.3,0,0,0-.39,5.687c.005.468.016.947.062,1.42.129,2.1-.553,3.493.16,4.59,2.07,3.183,13.852,5.514,11.956,1.58-.037-.091-.834-.809.506-1.239a17.053,17.053,0,0,1,0-9.9C457.434,129.793,456.727,128.8,455.411,128Z" fill="#ffb502"/>
      </g>
      <g id="Grupo_936529" data-name="Grupo 936529">
        <path id="Trazado_678047" data-name="Trazado 678047" d="M453.558,131c-.509,2.157-2.33,8.735,2.92,12.028,0,0-8.692,6.363-13.666.858,0,0,1-9.394,2.39-13.125.4-1.072,1.459-4.362,3.367-3.886,0,0-3.353,5.283-1.823,6.677s2.975.223,3.649-.829a30.183,30.183,0,0,0,2.238-5.6l2.112.318A23.813,23.813,0,0,0,453.558,131Z" fill="#1c2745"/>
      </g>
      <g id="Grupo_936533" data-name="Grupo 936533">
        <g id="Grupo_936530" data-name="Grupo 936530">
          <path id="Trazado_678048" data-name="Trazado 678048" d="M451.886,123.832s-1.116,1.751.069,2.918c1.219,1.192-4.379,3.3-4.107,2.228.346-1.388,1.173-2.129.694-3.836Z" fill="#f7b2a0"/>
        </g>
        <g id="Grupo_936531" data-name="Grupo 936531">
          <path id="Trazado_678049" data-name="Trazado 678049" d="M449.37,119.909c-1.347.975-3.27,5.774-2.155,7.03.494.547,2.816.3,4.522-1.7a4.192,4.192,0,0,0,.956-4.209C452.38,120.209,450.931,118.776,449.37,119.909Z" fill="#fbc6b4"/>
        </g>
        <g id="Grupo_936532" data-name="Grupo 936532">
          <path id="Trazado_678050" data-name="Trazado 678050" d="M448.07,120.351c-.343.59-.287.741,1.552,1.268s2.176.443,1.929.864c-.73,1.246.64,1.158-.249,2.633s.811.733,1.667-.46a3.58,3.58,0,0,0,.459-3.464C452.658,118.782,449.345,118.191,448.07,120.351Z" fill="#1d1b3a"/>
        </g>
      </g>
      <g id="Grupo_936534" data-name="Grupo 936534">
        <path id="Trazado_678051" data-name="Trazado 678051" d="M451.8,123.576s-5.692-1.607-5.427-3.383c.163-1.093,3.467-.663,3.467-.663Z" fill="#eda503"/>
      </g>
      <g id="Grupo_936535" data-name="Grupo 936535">
        <path id="Trazado_678052" data-name="Trazado 678052" d="M448.07,120.351c.456,1.712,1.8,2.654,5.286,3.767,0,0,1.889-3.383-.558-5.174C450.639,117.367,447.779,119.257,448.07,120.351Z" fill="#ffb502"/>
      </g>
      <g id="Grupo_936538" data-name="Grupo 936538">
        <g id="Grupo_936536" data-name="Grupo 936536">
          <path id="Trazado_678053" data-name="Trazado 678053" d="M455.721,127.743a2.158,2.158,0,0,0-2.416,1.3c-.9,1.792-.8,5.881-3.119,7.393s-3.991.659-5.182.236-1.463-1.155-2.183-1.328-.89.7.856,1.837c.836.545,4.633,3.74,7.733,2.449C455.472,137.936,458.7,128.691,455.721,127.743Z" fill="#fbc6b4"/>
        </g>
        <g id="Grupo_936537" data-name="Grupo 936537">
          <path id="Trazado_678054" data-name="Trazado 678054" d="M455.278,127.486s2.19.242,1.919,3.506a17.419,17.419,0,0,1-.832,4.642,8.427,8.427,0,0,1-5.1-1.024S452.253,126.709,455.278,127.486Z" fill="#eda503"/>
        </g>
      </g>
      <g id="Grupo_936543" data-name="Grupo 936543">
        <g id="Grupo_936539" data-name="Grupo 936539">
          <path id="Trazado_678055" data-name="Trazado 678055" d="M441.439,152.962c.485,6.208,3.019,15.864,3.373,21.089.028.361.089.428-1.371.738-1.687.349-.391,1.081,2.251,1.062,2.48-.019,3.585-9.8,3.826-14.973.073-1.454-.551-5.854.3-10,.1,1.551.248,3.318.46,5.25.633,5.659,8.077,13.082,8.639,17.844.041.366-.014.51-1.32.879s-.039,1.05,2.224,1,.883-9.914-.295-14.53C458.494,157.284,440.879,145.8,441.439,152.962Z" fill="#fbc6b4"/>
        </g>
        <g id="Grupo_936540" data-name="Grupo 936540">
          <path id="Trazado_678056" data-name="Trazado 678056" d="M447.083,174.674s-1.969.781-3.187,0c0,0-2.219.3-.827.839S447.165,176.5,447.083,174.674Z" fill="#ffb502"/>
        </g>
        <g id="Grupo_936541" data-name="Grupo 936541">
          <path id="Trazado_678057" data-name="Trazado 678057" d="M460.78,174.852s-1.971.777-3.187,0c0,0-2.221.3-.821.838S460.862,176.682,460.78,174.852Z" fill="#ffb502"/>
        </g>
        <g id="Grupo_936542" data-name="Grupo 936542">
          <path id="Trazado_678058" data-name="Trazado 678058" d="M443.191,140.795c4.516,3.012,10.829,2.7,13.287,2.229.664,5.37,4.7,25.523,5.156,28.287a10.823,10.823,0,0,1-3.214.8c-9.571-12.344-8.472-17.638-8.572-19.189-.363,1.794.819,10.575-1.246,19.189a4.372,4.372,0,0,1-4.292,0c-.077-.552-2.885-10.444-2.824-18.188C441.529,148.642,442.411,145.02,443.191,140.795Z" fill="#1c2745"/>
        </g>
      </g>
      <g id="Grupo_936545" data-name="Grupo 936545">
        <g id="Grupo_936544" data-name="Grupo 936544">
          <path id="Trazado_678059" data-name="Trazado 678059" d="M456.163,147.573a4.456,4.456,0,0,1-3.058-3.693l.372-.029a4.011,4.011,0,0,0,2.8,3.368Z" fill="#fff"/>
        </g>
      </g>
      <g id="Grupo_936547" data-name="Grupo 936547">
        <g id="Grupo_936546" data-name="Grupo 936546">
          <path id="Trazado_678060" data-name="Trazado 678060" d="M443.023,146.88l-.114-.355a4.061,4.061,0,0,0,2.8-3.367l.372.03A4.452,4.452,0,0,1,443.023,146.88Z" fill="#fff"/>
        </g>
      </g>
      <g id="Grupo_936572" data-name="Grupo 936572">
        <g id="Grupo_936548" data-name="Grupo 936548">
          <rect id="Rectángulo_329638" data-name="Rectángulo 329638" width="19.755" height="3.178" transform="translate(408.926 112.518)" fill="#64b4d7"/>
        </g>
        <g id="Grupo_936549" data-name="Grupo 936549">
          <rect id="Rectángulo_329639" data-name="Rectángulo 329639" width="4.066" height="3.178" transform="translate(408.926 112.518)" fill="#4ca1bf"/>
        </g>
        <g id="Grupo_936550" data-name="Grupo 936550">
          <path id="Trazado_678061" data-name="Trazado 678061" d="M431.513,117.277H405.8l.87-3.163h23.969Z" fill="#4ca1bf"/>
        </g>
        <g id="Grupo_936551" data-name="Grupo 936551">
          <rect id="Rectángulo_329640" data-name="Rectángulo 329640" width="3.413" height="4.063" transform="translate(429.843 121.157)" fill="#64b4d7"/>
        </g>
        <g id="Grupo_936552" data-name="Grupo 936552">
          <rect id="Rectángulo_329641" data-name="Rectángulo 329641" width="3.413" height="4.064" transform="translate(429.843 132.24)" fill="#64b4d7"/>
        </g>
        <g id="Grupo_936553" data-name="Grupo 936553">
          <rect id="Rectángulo_329642" data-name="Rectángulo 329642" width="3.703" height="41.617" transform="translate(416.915 133.506)" fill="#848fb7"/>
        </g>
        <g id="Grupo_936554" data-name="Grupo 936554">
          <rect id="Rectángulo_329643" data-name="Rectángulo 329643" width="1.12" height="41.617" transform="translate(416.915 133.506)" fill="#717ea5"/>
        </g>
        <g id="Grupo_936555" data-name="Grupo 936555">
          <rect id="Rectángulo_329644" data-name="Rectángulo 329644" width="18.957" height="22.474" transform="translate(412.556 117.277)" fill="#c1e4fa"/>
        </g>
        <g id="Grupo_936556" data-name="Grupo 936556">
          <rect id="Rectángulo_329645" data-name="Rectángulo 329645" width="8.462" height="22.474" transform="translate(405.803 117.277)" fill="#64b4d7"/>
        </g>
        <g id="Grupo_936557" data-name="Grupo 936557">
          <rect id="Rectángulo_329646" data-name="Rectángulo 329646" width="11.347" height="13.453" transform="translate(415.114 143.077)" fill="#c1e4fa"/>
        </g>
        <g id="Grupo_936558" data-name="Grupo 936558">
          <rect id="Rectángulo_329647" data-name="Rectángulo 329647" width="5.065" height="13.453" transform="translate(411.07 143.077)" fill="#64b4d7"/>
        </g>
        <g id="Grupo_936559" data-name="Grupo 936559">
          <rect id="Rectángulo_329648" data-name="Rectángulo 329648" width="10.332" height="22.474" transform="translate(432.238 117.277)" fill="#c1e4fa"/>
        </g>
        <g id="Grupo_936560" data-name="Grupo 936560">
          <path id="Trazado_678062" data-name="Trazado 678062" d="M414.265,117.277l-.655-3.163h-6.936l-.87,3.163Z" fill="#3c93aa"/>
        </g>
        <g id="Grupo_936561" data-name="Grupo 936561">
          <path id="Trazado_678063" data-name="Trazado 678063" d="M425.193,177.01H412.556v-2.468l4.359-.871h3.7l4.575.871Z" fill="#848fb7"/>
        </g>
        <g id="Grupo_936565" data-name="Grupo 936565">
          <g id="Grupo_936562" data-name="Grupo 936562">
            <path id="Trazado_678064" data-name="Trazado 678064" d="M424.94,129h-5.812l2.906-5.81Z" fill="#6d76a1"/>
          </g>
          <g id="Grupo_936563" data-name="Grupo 936563">
            <path id="Trazado_678065" data-name="Trazado 678065" d="M419.692,128.61l2.343-4.563,2.342,4.563Z" fill="#ffcf03"/>
          </g>
          <g id="Grupo_936564" data-name="Grupo 936564">
            <path id="Trazado_678066" data-name="Trazado 678066" d="M421.559,128.23l-.045-2.06.53.717.145-1.814.01,2.364-.43-.6Z" fill="#6d76a1"/>
          </g>
        </g>
        <g id="Grupo_936566" data-name="Grupo 936566">
          <rect id="Rectángulo_329649" data-name="Rectángulo 329649" width="5.955" height="3.558" transform="translate(407.037 120.07)" fill="#848fb7"/>
        </g>
        <g id="Grupo_936567" data-name="Grupo 936567">
          <rect id="Rectángulo_329650" data-name="Rectángulo 329650" width="4.485" height="0.437" transform="translate(407.771 120.523)" fill="#464f72"/>
        </g>
        <g id="Grupo_936568" data-name="Grupo 936568">
          <rect id="Rectángulo_329651" data-name="Rectángulo 329651" width="4.485" height="0.436" transform="translate(407.771 121.287)" fill="#464f72"/>
        </g>
        <g id="Grupo_936569" data-name="Grupo 936569">
          <rect id="Rectángulo_329652" data-name="Rectángulo 329652" width="4.485" height="0.436" transform="translate(407.771 122.067)" fill="#464f72"/>
        </g>
        <g id="Grupo_936570" data-name="Grupo 936570">
          <rect id="Rectángulo_329653" data-name="Rectángulo 329653" width="4.485" height="0.436" transform="translate(407.771 122.83)" fill="#464f72"/>
        </g>
        <g id="Grupo_936571" data-name="Grupo 936571">
          <path id="Trazado_678067" data-name="Trazado 678067" d="M412.556,174.542v2.468h5.479v-3.339h-1.12Z" fill="#717ea5"/>
        </g>
      </g>
    </g>
    <g id="Grupo_936595" data-name="Grupo 936595">
      <g id="Grupo_936576" data-name="Grupo 936576">
        <g id="Grupo_936575" data-name="Grupo 936575">
          <g id="Grupo_936574" data-name="Grupo 936574">
            <path id="Trazado_678068" data-name="Trazado 678068" d="M420.4,82.072l.409-.454-.406-.4c-.188-.218-.379-.436-.379-.436l-.474.385s.2.233.406.469Z" fill="#fbe366"/>
          </g>
        </g>
      </g>
      <g id="Grupo_936579" data-name="Grupo 936579">
        <g id="Grupo_936578" data-name="Grupo 936578">
          <g id="Grupo_936577" data-name="Grupo 936577">
            <path id="Trazado_678069" data-name="Trazado 678069" d="M422.082,83l.129-.6a2.5,2.5,0,0,1-.5-.17,2.228,2.228,0,0,1-.328-.18l-.144-.1-.347.5.169.108a2.349,2.349,0,0,0,.394.215A3.08,3.08,0,0,0,422.082,83Z" fill="#fbe366"/>
          </g>
        </g>
      </g>
      <g id="Grupo_936582" data-name="Grupo 936582">
        <g id="Grupo_936581" data-name="Grupo 936581">
          <g id="Grupo_936580" data-name="Grupo 936580">
            <path id="Trazado_678070" data-name="Trazado 678070" d="M424.006,82.745l-.243-.559a3.211,3.211,0,0,1-.519.182,2.324,2.324,0,0,1-.525.08l.019.61a2.934,2.934,0,0,0,.657-.1A3.853,3.853,0,0,0,424.006,82.745Z" fill="#fbe366"/>
          </g>
        </g>
      </g>
      <g id="Grupo_936585" data-name="Grupo 936585">
        <g id="Grupo_936584" data-name="Grupo 936584">
          <g id="Grupo_936583" data-name="Grupo 936583">
            <path id="Trazado_678071" data-name="Trazado 678071" d="M425.589,81.834l-.328-.514-.5.319-.5.3.3.534.528-.315C425.336,82,425.589,81.834,425.589,81.834Z" fill="#fbe366"/>
          </g>
        </g>
      </g>
      <g id="Grupo_936588" data-name="Grupo 936588">
        <g id="Grupo_936587" data-name="Grupo 936587">
          <g id="Grupo_936586" data-name="Grupo 936586">
            <path id="Trazado_678072" data-name="Trazado 678072" d="M427.089,81.051l-.184-.583a5.527,5.527,0,0,0-.6.241c-.281.139-.544.3-.544.3l.31.526s.25-.148.5-.274A4.7,4.7,0,0,1,427.089,81.051Z" fill="#fbe366"/>
          </g>
        </g>
      </g>
      <g id="Grupo_936591" data-name="Grupo 936591">
        <g id="Grupo_936590" data-name="Grupo 936590">
          <g id="Grupo_936589" data-name="Grupo 936589">
            <path id="Trazado_678073" data-name="Trazado 678073" d="M428.6,81.125l.252-.556a2.577,2.577,0,0,0-.64-.2,2.419,2.419,0,0,0-.673-.03l.057.608a1.78,1.78,0,0,1,.509.022A2.193,2.193,0,0,1,428.6,81.125Z" fill="#fbe366"/>
          </g>
        </g>
      </g>
      <g id="Grupo_936594" data-name="Grupo 936594">
        <g id="Grupo_936593" data-name="Grupo 936593">
          <g id="Grupo_936592" data-name="Grupo 936592">
            <path id="Trazado_678074" data-name="Trazado 678074" d="M429.874,82.147l.459-.405s-.213-.227-.435-.451c-.12-.1-.241-.206-.331-.284a1.766,1.766,0,0,0-.165-.115l-.35.5a1.428,1.428,0,0,1,.139.1l.29.249C429.68,81.94,429.874,82.147,429.874,82.147Z" fill="#fbe366"/>
          </g>
        </g>
      </g>
    </g>
    <g id="Grupo_936596" data-name="Grupo 936596">
      <path id="Trazado_678075" data-name="Trazado 678075" d="M394.481,166.9s6.075,2.158,4.92,9.872h-1.822A10,10,0,0,0,394.481,166.9Z" fill="#90cc3a"/>
      <path id="Trazado_678076" data-name="Trazado 678076" d="M403.466,164.61s-6.074,2.637-4.92,12.065h1.822A14.2,14.2,0,0,1,403.466,164.61Z" fill="#8bbf30"/>
      <path id="Trazado_678077" data-name="Trazado 678077" d="M404.005,166.9s-6.074,2.158-4.92,9.872h1.822A10,10,0,0,1,404.005,166.9Z" fill="#90cc3a"/>
      <path id="Trazado_678078" data-name="Trazado 678078" d="M394.451,170.063s3.63.949,3.87,6.432l-1.013.167A8.365,8.365,0,0,0,394.451,170.063Z" fill="#8bbf30"/>
      <path id="Trazado_678079" data-name="Trazado 678079" d="M404.261,170.063s-3.629.949-3.871,6.432l1.013.167A8.367,8.367,0,0,1,404.261,170.063Z" fill="#8bbf30"/>
    </g>
    <g id="Grupo_936597" data-name="Grupo 936597">
      <path id="Trazado_678080" data-name="Trazado 678080" d="M270.4,165.506s6.074,2.158,4.92,9.872H273.5A10,10,0,0,0,270.4,165.506Z" fill="#90cc3a"/>
      <path id="Trazado_678081" data-name="Trazado 678081" d="M279.388,163.215s-6.075,2.637-4.92,12.065h1.822A14.2,14.2,0,0,1,279.388,163.215Z" fill="#8bbf30"/>
      <path id="Trazado_678082" data-name="Trazado 678082" d="M279.927,165.506s-6.075,2.158-4.92,9.872h1.822A10,10,0,0,1,279.927,165.506Z" fill="#90cc3a"/>
      <path id="Trazado_678083" data-name="Trazado 678083" d="M270.373,168.669s3.63.948,3.87,6.431l-1.014.168A8.362,8.362,0,0,0,270.373,168.669Z" fill="#8bbf30"/>
      <path id="Trazado_678084" data-name="Trazado 678084" d="M280.183,168.669s-3.629.948-3.872,6.431l1.014.168A8.367,8.367,0,0,1,280.183,168.669Z" fill="#8bbf30"/>
    </g>
  </g>
</svg>
