<svg xmlns="http://www.w3.org/2000/svg" xmlns:xlink="http://www.w3.org/1999/xlink" width="145" height="145" viewBox="0 0 145 145">
  <defs>
    <filter id="Elipse_5260" x="0" y="0" width="145" height="145" filterUnits="userSpaceOnUse">
      <feOffset dy="3" input="SourceAlpha"/>
      <feGaussianBlur stdDeviation="3" result="blur"/>
      <feFlood flood-opacity="0.161"/>
      <feComposite operator="in" in2="blur"/>
      <feComposite in="SourceGraphic"/>
    </filter>
  </defs>
  <g id="Grupo_936799" data-name="Grupo 936799" transform="translate(-379 -1878)">
    <g transform="matrix(1, 0, 0, 1, 379, 1878)" filter="url(#Elipse_5260)">
      <circle id="Elipse_5260-2" data-name="Elipse 5260" cx="63.5" cy="63.5" r="63.5" transform="translate(9 6)" fill="#ad84ff"/>
    </g>
    <g id="layer1" transform="translate(418.474 1634.408)">
      <path id="path23540" d="M2.929,287.74H26.416l2.135,14.946H.794Z" transform="translate(0.812 21.693)" fill="#33b9ef"/>
      <path id="path23560" d="M22.024,294.835s-2.486.061-3.478,1.484-.4,3.854-.4,3.854-2.476-1.163-4.125-.276a4.693,4.693,0,0,0-2.15,2.314A4.693,4.693,0,0,0,9.72,299.9c-1.649-.888-4.125.276-4.125.276s.59-2.432-.4-3.854-3.477-1.484-3.477-1.484,1.868-1.707,1.85-3.3c.016-1.592-1.85-3.3-1.85-3.3s2.486-.061,3.477-1.484.4-3.854.4-3.854,2.476,1.163,4.125.276a4.693,4.693,0,0,0,2.15-2.314,4.693,4.693,0,0,0,2.15,2.314c1.649.888,4.125-.276,4.125-.276s-.59,2.431.4,3.854,3.478,1.484,3.478,1.484-1.868,1.707-1.85,3.3c-.016,1.592,1.85,3.3,1.85,3.3Z" transform="translate(3.614 0.815)" fill="#ffbc42"/>
      <path id="path23590" d="M14.023,285.623v5.949l5.338,4.956V285.623Z" transform="translate(40.962 15.268)" fill="#ff6b6b"/>
      <path id="path27916" d="M21.269,285.623l-11.744,10.9v18.987H33.012V296.528Z" transform="translate(27.311 15.268)" fill="#dbe9ee"/>
      <path id="ellipse23558" d="M11.716,286.718a4.27,4.27,0,1,1-4.27-4.27A4.27,4.27,0,0,1,11.716,286.718Z" transform="translate(8.039 5.631)" fill="#fde74c"/>
      <path id="path24278-6" d="M14.477,282.028a5.945,5.945,0,0,0,2.65,2.9,4.874,4.874,0,0,0,3.405.3,4.851,4.851,0,0,0,.753,2.948,4.235,4.235,0,0,0,2.39,1.574,4.015,4.015,0,0,0,0,5.2,4.236,4.236,0,0,0-2.392,1.574,4.861,4.861,0,0,0-.753,2.948,4.873,4.873,0,0,0-3.405.3,5.276,5.276,0,0,0-1.643,1.47,5.276,5.276,0,0,0-1.643-1.47,4.871,4.871,0,0,0-3.4-.3,4.848,4.848,0,0,0-.753-2.948,4.24,4.24,0,0,0-2.392-1.574,4.018,4.018,0,0,0,0-5.2,4.239,4.239,0,0,0,2.392-1.574,4.93,4.93,0,0,0,.757-3.015,5.623,5.623,0,0,0,2.15.173,1.068,1.068,0,1,0-.321-2.11,6.334,6.334,0,0,1-2.608-.479,1.068,1.068,0,0,0-1.491,1.22,6.39,6.39,0,0,1,.142,1.174,3.372,3.372,0,0,1-.382,1.818,2.785,2.785,0,0,1-1.5.851,5.633,5.633,0,0,1-1.126.175,1.068,1.068,0,0,0-.694,1.856,7.057,7.057,0,0,1,.794.9,3.37,3.37,0,0,1,.709,1.6c0,.008,0,.016,0,.024a3.36,3.36,0,0,1-.707,1.6,7,7,0,0,1-.8.9,1.068,1.068,0,0,0,.694,1.856,5.78,5.78,0,0,1,1.126.175,2.786,2.786,0,0,1,1.5.851,3.372,3.372,0,0,1,.382,1.818,6.39,6.39,0,0,1-.142,1.174,1.068,1.068,0,0,0,1.491,1.22,6.418,6.418,0,0,1,1.218-.394,3.151,3.151,0,0,1,1.948.092,3.449,3.449,0,0,1,1.649,1.729,1.068,1.068,0,0,0,2.014,0,3.45,3.45,0,0,1,1.649-1.729,3.152,3.152,0,0,1,1.948-.092,6.428,6.428,0,0,1,1.218.394,1.068,1.068,0,0,0,1.491-1.22,6.39,6.39,0,0,1-.142-1.174,3.372,3.372,0,0,1,.382-1.818,2.785,2.785,0,0,1,1.5-.851,5.638,5.638,0,0,1,1.126-.175,1.068,1.068,0,0,0,.694-1.856,7.068,7.068,0,0,1-.794-.9,3.371,3.371,0,0,1-.709-1.6c0-.008,0-.016,0-.024a3.364,3.364,0,0,1,.709-1.6,7.082,7.082,0,0,1,.794-.9,1.068,1.068,0,0,0-.694-1.856,5.776,5.776,0,0,1-1.126-.175,2.785,2.785,0,0,1-1.5-.851,3.373,3.373,0,0,1-.382-1.818,6.39,6.39,0,0,1,.142-1.174,1.068,1.068,0,0,0-1.491-1.22,6.419,6.419,0,0,1-1.218.394,3.151,3.151,0,0,1-1.948-.092,3.449,3.449,0,0,1-1.649-1.729,1.068,1.068,0,1,0-2.014.709Zm1.009,4.981a5.339,5.339,0,1,0,5.336,5.342A5.363,5.363,0,0,0,15.487,287.01Zm0,2.135a3.2,3.2,0,1,1-3.209,3.207A3.187,3.187,0,0,1,15.487,289.145Zm33.037,10.678a1.064,1.064,0,0,0-.671.284L32.91,313.985a1.068,1.068,0,0,0,1.451,1.568l14.216-13.207,10.678,9.915v17.455c-7.136-.02-14.215,0-21.348,0V316.9a1.069,1.069,0,0,0-2.137,0v13.879a1.068,1.068,0,0,0,1.066,1.072H47.514v8.007a3.176,3.176,0,0,1-3.209,3.2H19.757a3.174,3.174,0,0,1-3.207-3.2v-4.806a1.068,1.068,0,1,0-2.135,0v4.806a5.352,5.352,0,0,0,5.342,5.336H44.305a5.353,5.353,0,0,0,5.344-5.336V331.85h10.67a1.068,1.068,0,0,0,1.072-1.072V314.241l1.412,1.312a1.068,1.068,0,1,0,1.449-1.568l-2.861-2.656V300.89a1.068,1.068,0,0,0-1.068-1.068H54.985a1.068,1.068,0,0,0-1.068,1.068v1.068a1.068,1.068,0,1,0,2.135,0h3.2v7.388L49.3,300.106A1.068,1.068,0,0,0,48.523,299.823ZM11.214,331.85h8.543a1.068,1.068,0,1,0,0-2.135H16.55v-4.272h12.8a1.068,1.068,0,1,0,0-2.135h-5.4l-.38-5.334h3.782l.325,2.285a1.07,1.07,0,1,0,2.118-.3l-1.528-10.678a1.068,1.068,0,0,0-1.055-.915l-23.472,0a1.07,1.07,0,1,0-.012,2.139h4.2l-.382,5.334H3.885l.284-1.985a1.067,1.067,0,1,0-2.112-.3L.536,324.229a1.068,1.068,0,0,0,1.055,1.214H14.415v4.272h-3.2a1.068,1.068,0,0,0,0,2.135ZM49.7,310.013a1.071,1.071,0,0,0-.865.49l-4.429,6.643a1.068,1.068,0,0,0,.89,1.654h4.65l-3.326,4.99a1.069,1.069,0,0,0,1.781,1.182l4.42-6.643a1.068,1.068,0,0,0-.882-1.664h-4.65l3.317-4.981a1.067,1.067,0,0,0-.907-1.67Zm-39.632.49h4.343v5.334H9.692Zm6.478,0h4.343l.384,5.334H16.55Zm6.489,0H26.29l.759,5.334h-3.63ZM3.581,317.974H7.4l-.382,5.334H2.821Zm5.959,0h4.875v5.334H9.16Zm7.01,0h4.879l.384,5.334H16.55Z" transform="translate(0 0)"/>
    </g>
  </g>
</svg>
