<svg xmlns="http://www.w3.org/2000/svg" width="94" height="93.495" viewBox="0 0 94 93.495">
  <g id="ecosistema" transform="translate(-1 -1.333)">
    <g id="Grupo_935189" data-name="Grupo 935189" transform="translate(2.519 3.86)">
      <g id="Grupo_935179" data-name="Grupo 935179" transform="translate(36.385 62.161)">
        <path id="Trazado_676274" data-name="Trazado 676274" d="M44.194,44V54.31L38.129,53.1V71.29h-9.1V50.065L26,50.671V44H44.194Z" transform="translate(-26 -44)" fill="#ccd1d9"/>
      </g>
      <g id="Grupo_935180" data-name="Grupo 935180" transform="translate(48.514 71.258)">
        <path id="Trazado_676275" data-name="Trazado 676275" d="M49.161,57.581V68.194H34V50l6.065,1.213,9.1,1.819Z" transform="translate(-34 -50)" fill="#e6e9ed"/>
      </g>
      <g id="Grupo_935181" data-name="Grupo 935181" transform="translate(69.739 57.613)">
        <path id="Trazado_676276" data-name="Trazado 676276" d="M63.161,41v6.065H48V41H63.161Z" transform="translate(-48 -41)" fill="#ccd1d9"/>
      </g>
      <g id="Grupo_935182" data-name="Grupo 935182" transform="translate(63.675 33.355)">
        <path id="Trazado_676277" data-name="Trazado 676277" d="M44,25H71.29V49.258H44Z" transform="translate(-44 -25)" fill="#69d6f4"/>
      </g>
      <g id="Grupo_935183" data-name="Grupo 935183" transform="translate(28.804)">
        <path id="Trazado_676278" data-name="Trazado 676278" d="M54.355,19.677l-.955.576a9.306,9.306,0,0,0-3.927,11.219L47.79,31.2a9.284,9.284,0,0,0-8.945,3.593l-1.167,1.562-1.031-1.38a9.274,9.274,0,0,0-9.264-3.533l-1.835.364.091-.227a9.308,9.308,0,0,0-3.851-11.432L21,19.677l.788-.47a9.3,9.3,0,0,0,4.306-9.931,8.572,8.572,0,0,0-.455-1.5l-.091-.227,1.835.364A9.274,9.274,0,0,0,36.646,4.38L37.677,3l1.031,1.38a9.274,9.274,0,0,0,9.264,3.533l1.835-.364-.091.227a8.572,8.572,0,0,0-.455,1.5,9.3,9.3,0,0,0,4.306,9.931Z" transform="translate(-21 -3)" fill="#ffc729"/>
      </g>
      <g id="Grupo_935184" data-name="Grupo 935184" transform="translate(37.901 9.097)">
        <circle id="Elipse_5258" data-name="Elipse 5258" cx="7.581" cy="7.581" r="7.581" transform="translate(0 0)" fill="#fcd770"/>
      </g>
      <g id="Grupo_935185" data-name="Grupo 935185" transform="translate(24.256 68.226)">
        <path id="Trazado_676279" data-name="Trazado 676279" d="M33.161,48V69.226H18V51.032l12.129-2.426Z" transform="translate(-18 -48)" fill="#dfb28b"/>
      </g>
      <g id="Grupo_935186" data-name="Grupo 935186" transform="translate(0 31.836)">
        <path id="Trazado_676280" data-name="Trazado 676280" d="M14.128,51.291H9.58V50.154a4.49,4.49,0,0,0-1.971-3.805A12.126,12.126,0,0,1,9.7,24.835a11.9,11.9,0,0,1,3.017-.758,12.13,12.13,0,0,1,7.96,22.257,4.437,4.437,0,0,0-2,3.76v1.2Z" transform="translate(-2.002 -23.998)" fill="#ffeaa7"/>
      </g>
      <g id="Grupo_935187" data-name="Grupo 935187" transform="translate(7.578 59.129)">
        <path id="Trazado_676281" data-name="Trazado 676281" d="M16.1,42v1.516a4.521,4.521,0,0,1-4.412,4.533.42.42,0,0,1-.136.015A4.555,4.555,0,0,1,7,43.516V42h9.1Z" transform="translate(-7 -42)" fill="#aab2bd"/>
      </g>
      <g id="Grupo_935188" data-name="Grupo 935188" transform="translate(9.094 40.935)">
        <circle id="Elipse_5259" data-name="Elipse 5259" cx="3.032" cy="3.032" r="3.032" transform="translate(0)" fill="#fcd770"/>
      </g>
    </g>
    <g id="Grupo_935190" data-name="Grupo 935190" transform="translate(1 1.333)">
      <path id="Trazado_676282" data-name="Trazado 676282" d="M35.1,26.194A9.1,9.1,0,1,0,26,17.1,9.106,9.106,0,0,0,35.1,26.194Zm0-15.161A6.065,6.065,0,1,1,29.032,17.1,6.071,6.071,0,0,1,35.1,11.032Z" transform="translate(11.904 2.108)"/>
      <path id="Trazado_676283" data-name="Trazado 676283" d="M87.086,35.7A41.3,41.3,0,0,0,61.454,9.177l1.116-2.8L58,7.288a7.832,7.832,0,0,1-7.757-2.964L48,1.333,45.758,4.324A7.831,7.831,0,0,1,38,7.288L33.43,6.374l1.116,2.8A40.806,40.806,0,0,0,9,35.419,13.724,13.724,0,0,0,1.114,46.042,13.583,13.583,0,0,0,7.306,59.325a2.982,2.982,0,0,1,1.275,2.527v2.653A6.053,6.053,0,0,0,13.927,70.5,41.428,41.428,0,0,0,25.258,81.853V91.8H7.065v3.032H88.935V91.8H67.71v-8.1a40.978,40.978,0,0,0,15.273-14.64h8.985V66.022H88.935V62.989H95V35.7Zm4.882,12.129H85.9v-9.1h6.065ZM76.806,59.957v-9.1h6.065v9.1Zm-9.1-9.1h6.064v9.1H67.71Zm0-3.032v-9.1h6.064v9.1Zm9.1,0v-9.1h6.065v9.1ZM38.01,10.365A10.887,10.887,0,0,0,48,6.38a10.886,10.886,0,0,0,9.991,3.984A10.756,10.756,0,0,0,61.9,20.523a10.828,10.828,0,0,0-4.115,9.959A10.766,10.766,0,0,0,48,34.692a10.89,10.89,0,0,0-8.5-4.086,10.522,10.522,0,0,0-1.493.1,10.755,10.755,0,0,0-3.925-10.173A10.759,10.759,0,0,0,38.01,10.365ZM8.94,56.77A10.61,10.61,0,0,1,13.4,37.285a11.318,11.318,0,0,1,1.255-.07,10.492,10.492,0,0,1,7.055,2.7,10.6,10.6,0,0,1-1.336,16.843,5.916,5.916,0,0,0-2.681,4.72H16.161V52.1a4.548,4.548,0,1,0-3.032,0v9.376H11.59a5.91,5.91,0,0,0-2.65-4.7Zm4.189-8.942a1.516,1.516,0,1,1,1.516,1.516A1.519,1.519,0,0,1,13.129,47.828ZM11.613,64.505h6.065a3.032,3.032,0,0,1-6.065,0Zm43.968,3.032v6.944l-6.065-1.213V91.8H43.452V70.236l-3.032.606V67.538Zm-15.161,6.4V91.8H28.29V76.362ZM52.548,91.8V76.968l12.129,2.426V91.8ZM67.71,80.2V76.907l-9.1-1.819V64.505H55.581V61.473H52.548v3.032H49.516V58.441H46.484v6.065H43.452V61.473H40.419v3.032H37.387v6.944L25.258,73.875v4.259a38.409,38.409,0,0,1-8.023-8.167,6.056,6.056,0,0,0,3.475-5.461V61.789A2.958,2.958,0,0,1,22.017,59.3a13.644,13.644,0,0,0-8.956-25.031c-.165.018-.326.053-.49.077A37.777,37.777,0,0,1,35.1,12.19a7.735,7.735,0,0,1-3.769,6.575l-2.952,1.772L31.33,22.31a7.754,7.754,0,0,1,3.222,9.571L33.43,34.7,38,33.787a7.834,7.834,0,0,1,7.757,2.964L48,39.743l2.383-3.176a7.762,7.762,0,0,1,7.481-3.014l4.26.694-.91-2.444A7.791,7.791,0,0,1,64.5,22.41l3.12-1.872-2.953-1.772A7.738,7.738,0,0,1,60.9,12.193,38.276,38.276,0,0,1,83.91,35.7H64.677v27.29h6.065v3.032H67.71v3.032h11.7A37.952,37.952,0,0,1,67.71,80.2ZM85.9,66.022H73.774V62.989H85.9Zm0-6.065v-9.1h6.065v9.1Z" transform="translate(-1 -1.333)"/>
      <path id="Trazado_676284" data-name="Trazado 676284" d="M61,61h3.032v3.032H61Z" transform="translate(29.968 29.463)"/>
      <path id="Trazado_676285" data-name="Trazado 676285" d="M1,61H4.032v3.032H1Z" transform="translate(-0.999 29.463)"/>
      <path id="Trazado_676286" data-name="Trazado 676286" d="M37,57h6.065v3.032H37Z" transform="translate(17.581 27.398)"/>
      <path id="Trazado_676287" data-name="Trazado 676287" d="M21,53h6.065v3.032H21Z" transform="translate(9.323 25.334)"/>
      <path id="Trazado_676288" data-name="Trazado 676288" d="M21,57h6.065v3.032H21Z" transform="translate(9.323 27.398)"/>
      <path id="Trazado_676289" data-name="Trazado 676289" d="M25,29H46.226v3.032H25Z" transform="translate(11.388 12.947)"/>
      <path id="Trazado_676290" data-name="Trazado 676290" d="M37,33h3.032v3.032H37Z" transform="translate(17.581 15.011)"/>
      <path id="Trazado_676291" data-name="Trazado 676291" d="M29,33h3.032v3.032H29Z" transform="translate(13.452 15.011)"/>
      <path id="Trazado_676292" data-name="Trazado 676292" d="M25,33h3.032v3.032H25Z" transform="translate(11.388 15.011)"/>
      <path id="Trazado_676293" data-name="Trazado 676293" d="M33,33h3.032v3.032H33Z" transform="translate(15.517 15.011)"/>
    </g>
  </g>
</svg>
