<svg xmlns="http://www.w3.org/2000/svg" xmlns:xlink="http://www.w3.org/1999/xlink" width="200" height="200" viewBox="0 0 200 200">
  <defs>
    <filter id="Elipse_5144" x="0" y="0" width="200" height="200" filterUnits="userSpaceOnUse">
      <feOffset dy="3" input="SourceAlpha"/>
      <feGaussianBlur stdDeviation="3" result="blur"/>
      <feFlood flood-opacity="0.161"/>
      <feComposite operator="in" in2="blur"/>
      <feComposite in="SourceGraphic"/>
    </filter>
  </defs>
  <g id="Grupo_936805" data-name="Grupo 936805" transform="translate(-391 -13923)">
    <g transform="matrix(1, 0, 0, 1, 391, 13923)" filter="url(#Elipse_5144)">
      <circle id="Elipse_5144-2" data-name="Elipse 5144" cx="91" cy="91" r="91" transform="translate(9 6)" fill="#fff"/>
    </g>
    <g id="voltimetro" transform="translate(445.966 13974.84)">
      <g id="Grupo_930448" data-name="Grupo 930448" transform="translate(36.888 77.427)">
        <path id="Trazado_667260" data-name="Trazado 667260" d="M34.413,55.97v3.809a1.655,1.655,0,0,1-1.66,1.66H28.54a1.655,1.655,0,0,1-1.66-1.66V55.97Z" transform="translate(-26.88 -55.97)" fill="#ec5664"/>
      </g>
      <g id="Grupo_930449" data-name="Grupo 930449" transform="translate(20.049 77.427)">
        <path id="Trazado_667261" data-name="Trazado 667261" d="M22.33,55.97v3.809a1.655,1.655,0,0,1-1.66,1.66h-4.2a1.655,1.655,0,0,1-1.66-1.66V55.97Z" transform="translate(-14.81 -55.97)" fill="#a0ce69"/>
      </g>
      <g id="Grupo_930450" data-name="Grupo 930450" transform="translate(2.541 2.651)">
        <path id="Trazado_667262" data-name="Trazado 667262" d="M59.082,12.554V66.977A10.187,10.187,0,0,1,48.9,77.161H12.444A10.187,10.187,0,0,1,2.26,66.977V12.554A10.187,10.187,0,0,1,12.444,2.37H48.912a10.184,10.184,0,0,1,10.17,10.184Z" transform="translate(-2.26 -2.37)" fill="#ffcd57"/>
      </g>
      <g id="Grupo_930451" data-name="Grupo 930451" transform="translate(2.554 2.664)">
        <path id="Trazado_667263" data-name="Trazado 667263" d="M59.078,53.217V66.973a10.163,10.163,0,0,1-10.17,10.17H12.44A10.163,10.163,0,0,1,2.27,66.973V12.55A10.163,10.163,0,0,1,12.44,2.38H24.452A42.545,42.545,0,0,0,59.078,53.217Z" transform="translate(-2.27 -2.38)" fill="#f4ba43"/>
      </g>
      <g id="Grupo_930452" data-name="Grupo 930452" transform="translate(18.556 39.09)">
        <circle id="Elipse_5146" data-name="Elipse 5146" cx="12.388" cy="12.388" r="12.388" fill="#f5f5fa"/>
      </g>
      <g id="Grupo_930453" data-name="Grupo 930453" transform="translate(18.57 39.397)">
        <path id="Trazado_667264" data-name="Trazado 667264" d="M37.815,44.949A12.391,12.391,0,1,1,23.4,28.71a12.2,12.2,0,0,0-.725,4.171A12.4,12.4,0,0,0,35.067,45.27,12.767,12.767,0,0,0,37.815,44.949Z" transform="translate(-13.75 -28.71)" fill="#e5e8ec"/>
      </g>
      <g id="Grupo_930454" data-name="Grupo 930454" transform="translate(23.493 44.029)">
        <ellipse id="Elipse_5147" data-name="Elipse 5147" cx="8.036" cy="2.497" rx="8.036" ry="2.497" transform="translate(0 11.362) rotate(-45)" fill="#ec5664"/>
      </g>
      <g id="Grupo_930455" data-name="Grupo 930455" transform="translate(10.841 11.565)">
        <path id="Trazado_667265" data-name="Trazado 667265" d="M48.43,11.48V21.748a2.724,2.724,0,0,1-2.72,2.72H10.93a2.724,2.724,0,0,1-2.72-2.72V11.48a2.724,2.724,0,0,1,2.72-2.72H45.724a2.712,2.712,0,0,1,2.706,2.72Z" transform="translate(-8.21 -8.76)" fill="#51bfe7"/>
      </g>
      <g id="Grupo_930456" data-name="Grupo 930456" transform="translate(10.841 11.565)">
        <path id="Trazado_667266" data-name="Trazado 667266" d="M48.43,17.465v4.283a2.709,2.709,0,0,1-2.706,2.706H10.93a2.712,2.712,0,0,1-2.72-2.706V11.48a2.715,2.715,0,0,1,2.72-2.72H21.589c-1.716.865-2.679,1.855-2.679,2.916,0,3.39,9.961,6.138,22.238,6.138C43.687,17.814,46.142,17.689,48.43,17.465Z" transform="translate(-8.21 -8.76)" fill="#3badd8"/>
      </g>
      <g id="Grupo_930457" data-name="Grupo 930457" transform="translate(1.55 1.66)">
        <path id="Trazado_667267" data-name="Trazado 667267" d="M49.178,78.432H12.725A11.181,11.181,0,0,1,1.55,67.257V12.835A11.181,11.181,0,0,1,12.725,1.66H49.192A11.181,11.181,0,0,1,60.367,12.835V67.257A11.193,11.193,0,0,1,49.178,78.432ZM12.725,3.655a9.187,9.187,0,0,0-9.18,9.18V67.257a9.187,9.187,0,0,0,9.18,9.18H49.192a9.187,9.187,0,0,0,9.18-9.18V12.835a9.187,9.187,0,0,0-9.18-9.18Z" transform="translate(-1.55 -1.66)" fill="#000001"/>
      </g>
      <g id="Grupo_930458" data-name="Grupo 930458" transform="translate(9.851 10.575)">
        <path id="Trazado_667268" data-name="Trazado 667268" d="M45.99,25.74H11.211A3.718,3.718,0,0,1,7.5,22.029V11.761A3.718,3.718,0,0,1,11.211,8.05H46a3.718,3.718,0,0,1,3.711,3.711V22.029A3.721,3.721,0,0,1,45.99,25.74ZM11.211,10.045a1.715,1.715,0,0,0-1.716,1.716V22.029a1.715,1.715,0,0,0,1.716,1.716H46a1.715,1.715,0,0,0,1.716-1.716V11.761A1.715,1.715,0,0,0,46,10.045Z" transform="translate(-7.5 -8.05)" fill="#000001"/>
      </g>
      <g id="Grupo_930459" data-name="Grupo 930459" transform="translate(17.552 38.086)">
        <path id="Trazado_667269" data-name="Trazado 667269" d="M26.413,54.556A13.393,13.393,0,1,1,39.806,41.163,13.414,13.414,0,0,1,26.413,54.556Zm0-24.791a11.4,11.4,0,1,0,11.4,11.4A11.411,11.411,0,0,0,26.413,29.765Z" transform="translate(-13.02 -27.77)" fill="#000104"/>
      </g>
      <g id="Grupo_930460" data-name="Grupo 930460" transform="translate(23.983 44.505)">
        <path id="Trazado_667270" data-name="Trazado 667270" d="M19.681,46.306a1.975,1.975,0,0,1-1.479-.572c-1.953-1.953,1.535-6.487,3.906-8.873s6.906-5.873,8.873-3.92-1.535,6.487-3.92,8.873c-1.883,1.883-5.134,4.492-7.38,4.492Zm9.794-12c-.516,0-2.93.949-5.943,3.976-3.139,3.139-4.046,5.622-3.878,6.083.363.056,2.846-.809,6-3.962s4.046-5.622,3.878-6.083C29.516,34.309,29.5,34.309,29.474,34.309Z" transform="translate(-17.63 -32.371)" fill="#000104"/>
      </g>
      <g id="Grupo_930461" data-name="Grupo 930461" transform="translate(29.954 31.626)">
        <path id="Trazado_667271" data-name="Trazado 667271" d="M22.914,27.1a1,1,0,0,1-1-1V24.144a1,1,0,1,1,2.009,0V26.1A1.018,1.018,0,0,1,22.914,27.1Z" transform="translate(-21.91 -23.14)" fill="#000207"/>
      </g>
      <g id="Grupo_930462" data-name="Grupo 930462" transform="translate(20.527 34.156)">
        <path id="Trazado_667272" data-name="Trazado 667272" d="M17.13,28.646a.99.99,0,0,1-.865-.5l-.977-1.688a1,1,0,1,1,1.73-1l.977,1.688a1,1,0,0,1-.363,1.367A.944.944,0,0,1,17.13,28.646Z" transform="translate(-15.153 -24.953)" fill="#000207"/>
      </g>
      <g id="Grupo_930463" data-name="Grupo 930463" transform="translate(13.636 41.047)">
        <path id="Trazado_667273" data-name="Trazado 667273" d="M12.9,32.874a.979.979,0,0,1-.5-.14l-1.688-.977a1,1,0,1,1,1-1.73L13.4,31a1,1,0,0,1,.363,1.367.99.99,0,0,1-.865.5Z" transform="translate(-10.213 -29.893)" fill="#000207"/>
      </g>
      <g id="Grupo_930464" data-name="Grupo 930464" transform="translate(11.106 50.46)">
        <path id="Trazado_667274" data-name="Trazado 667274" d="M11.358,38.649H9.4a1,1,0,0,1,0-2.009h1.953a1,1,0,0,1,0,2.009Z" transform="translate(-8.4 -36.64)" fill="#000207"/>
      </g>
      <g id="Grupo_930465" data-name="Grupo 930465" transform="translate(13.636 58.919)">
        <path id="Trazado_667275" data-name="Trazado 667275" d="M11.213,45.684a.99.99,0,0,1-.865-.5,1,1,0,0,1,.363-1.367l1.688-.977a1,1,0,1,1,1,1.73l-1.688.977A.979.979,0,0,1,11.213,45.684Z" transform="translate(-10.213 -42.703)" fill="#000207"/>
      </g>
      <g id="Grupo_930466" data-name="Grupo 930466" transform="translate(20.527 65.099)">
        <path id="Trazado_667276" data-name="Trazado 667276" d="M16.153,50.826a.979.979,0,0,1-.5-.14,1,1,0,0,1-.363-1.367l.977-1.688a1,1,0,0,1,1.73,1l-.977,1.688a.99.99,0,0,1-.865.5Z" transform="translate(-15.153 -47.133)" fill="#000207"/>
      </g>
      <g id="Grupo_930467" data-name="Grupo 930467" transform="translate(29.954 67.355)">
        <path id="Trazado_667277" data-name="Trazado 667277" d="M22.914,52.712a1,1,0,0,1-1-1V49.754a1,1,0,1,1,2.009,0v1.953A1.018,1.018,0,0,1,22.914,52.712Z" transform="translate(-21.91 -48.75)" fill="#000207"/>
      </g>
      <g id="Grupo_930468" data-name="Grupo 930468" transform="translate(38.398 65.099)">
        <path id="Trazado_667278" data-name="Trazado 667278" d="M29.94,50.826a.99.99,0,0,1-.865-.5L28.1,48.636a1,1,0,0,1,1.73-1l.977,1.688a1,1,0,0,1-.363,1.367.944.944,0,0,1-.5.14Z" transform="translate(-27.963 -47.133)" fill="#000207"/>
      </g>
      <g id="Grupo_930469" data-name="Grupo 930469" transform="translate(44.579 58.919)">
        <path id="Trazado_667279" data-name="Trazado 667279" d="M35.081,45.684a.979.979,0,0,1-.5-.14l-1.688-.977a1,1,0,0,1,1-1.73l1.688.977a1,1,0,0,1,.363,1.367.99.99,0,0,1-.865.5Z" transform="translate(-32.393 -42.703)" fill="#000207"/>
      </g>
      <g id="Grupo_930470" data-name="Grupo 930470" transform="translate(46.835 50.46)">
        <path id="Trazado_667280" data-name="Trazado 667280" d="M36.968,38.649H35.014a1,1,0,1,1,0-2.009h1.953a1,1,0,0,1,0,2.009Z" transform="translate(-34.01 -36.64)" fill="#000207"/>
      </g>
      <g id="Grupo_930471" data-name="Grupo 930471" transform="translate(44.579 41.047)">
        <path id="Trazado_667281" data-name="Trazado 667281" d="M33.393,32.874a.99.99,0,0,1-.865-.5A1,1,0,0,1,32.891,31l1.688-.977a1,1,0,0,1,1,1.73l-1.688.977A.944.944,0,0,1,33.393,32.874Z" transform="translate(-32.393 -29.893)" fill="#000207"/>
      </g>
      <g id="Grupo_930472" data-name="Grupo 930472" transform="translate(38.398 34.156)">
        <path id="Trazado_667282" data-name="Trazado 667282" d="M28.963,28.646a.979.979,0,0,1-.5-.14,1,1,0,0,1-.363-1.367l.977-1.688a1,1,0,1,1,1.73,1l-.977,1.688a.99.99,0,0,1-.865.5Z" transform="translate(-27.963 -24.953)" fill="#000207"/>
      </g>
      <g id="Grupo_930473" data-name="Grupo 930473" transform="translate(24.393 44.131)">
        <path id="Trazado_667283" data-name="Trazado 667283" d="M20.025,35.265a.982.982,0,0,1-.725-.307L18.2,33.8a1.006,1.006,0,1,1,1.451-1.4l1.1,1.158a1,1,0,0,1-.725,1.7Z" transform="translate(-17.924 -32.104)" fill="#000104"/>
      </g>
      <g id="Grupo_930474" data-name="Grupo 930474" transform="translate(34.423 54.943)">
        <path id="Trazado_667284" data-name="Trazado 667284" d="M27.215,43.015a.982.982,0,0,1-.725-.307l-1.1-1.158a1.006,1.006,0,1,1,1.451-1.4l1.1,1.158a1,1,0,0,1-.725,1.7Z" transform="translate(-25.114 -39.854)" fill="#000104"/>
      </g>
      <g id="Grupo_930475" data-name="Grupo 930475" transform="translate(19.058 76.423)">
        <path id="Trazado_667285" data-name="Trazado 667285" d="M20.95,62.714h-4.2A2.649,2.649,0,0,1,14.1,60.063V56.254a1,1,0,0,1,1-1h7.52a1,1,0,0,1,1,1v3.809A2.682,2.682,0,0,1,20.95,62.714Zm-4.855-5.455v2.8a.655.655,0,0,0,.656.656h4.213a.655.655,0,0,0,.656-.656v-2.8Z" transform="translate(-14.1 -55.25)"/>
      </g>
      <g id="Grupo_930476" data-name="Grupo 930476" transform="translate(35.897 76.423)">
        <path id="Trazado_667286" data-name="Trazado 667286" d="M33.034,62.714H28.821a2.649,2.649,0,0,1-2.651-2.651V56.254a1,1,0,0,1,1-1h7.52a1,1,0,0,1,1,1v3.809A2.661,2.661,0,0,1,33.034,62.714Zm-4.855-5.455v2.8a.655.655,0,0,0,.656.656h4.213a.655.655,0,0,0,.656-.656v-2.8Z" transform="translate(-26.17 -55.25)"/>
      </g>
      <g id="Grupo_930477" data-name="Grupo 930477" transform="translate(39.65 66.253)">
        <path id="Trazado_667287" data-name="Trazado 667287" d="M55.13,70.812H33.9a5.043,5.043,0,0,1-5.036-5.036V64.589a1,1,0,0,1,2.009,0v1.186A3.025,3.025,0,0,0,33.9,68.8H55.13a3.025,3.025,0,0,0,3.027-3.027V48.964a1,1,0,1,1,2.009,0V65.789a5.031,5.031,0,0,1-5.036,5.022Z" transform="translate(-28.86 -47.96)"/>
      </g>
      <g id="Grupo_930478" data-name="Grupo 930478" transform="translate(22.811 40.206)">
        <path id="Trazado_667288" data-name="Trazado 667288" d="M72.649,78.188H21.826a5.043,5.043,0,0,1-5.036-5.036V71.966a1,1,0,1,1,2.009,0v1.186a3.025,3.025,0,0,0,3.027,3.027H72.663a3.025,3.025,0,0,0,3.027-3.027V30.294a1,1,0,1,1,2.009,0V73.152A5.055,5.055,0,0,1,72.649,78.188Z" transform="translate(-16.79 -29.29)"/>
      </g>
      <g id="Grupo_930485" data-name="Grupo 930485" transform="translate(76.09 13.044)">
        <g id="Grupo_930479" data-name="Grupo 930479" transform="translate(1.004 12.263)">
          <path id="Trazado_667289" data-name="Trazado 667289" d="M66.917,20.535v8.412a5.608,5.608,0,0,1-11.217,0V20.535a1.929,1.929,0,0,1,1.925-1.925h7.352A1.932,1.932,0,0,1,66.917,20.535Z" transform="translate(-55.7 -18.61)" fill="#ec5664"/>
        </g>
        <g id="Grupo_930480" data-name="Grupo 930480" transform="translate(1.004 12.249)">
          <path id="Trazado_667290" data-name="Trazado 667290" d="M66.582,30.849a5.612,5.612,0,0,1-5.273,3.711A5.621,5.621,0,0,1,55.7,28.952V20.539A1.935,1.935,0,0,1,57.639,18.6h3.669c0,6.794,2.134,12.3,4.785,12.3A1.462,1.462,0,0,0,66.582,30.849Z" transform="translate(-55.7 -18.6)" fill="#db4554"/>
        </g>
        <g id="Grupo_930481" data-name="Grupo 930481" transform="translate(3.878 1.004)">
          <path id="Trazado_667291" data-name="Trazado 667291" d="M63.229,13.274V21.8H57.76V13.274a2.734,2.734,0,1,1,5.469,0Z" transform="translate(-57.76 -10.54)" fill="#ec5664"/>
        </g>
        <g id="Grupo_930482" data-name="Grupo 930482" transform="translate(3.878 1.004)">
          <path id="Trazado_667292" data-name="Trazado 667292" d="M63.229,19.58V21.8H57.76V13.274a2.739,2.739,0,0,1,2.734-2.734,1.87,1.87,0,0,1,.279.014,14.5,14.5,0,0,0-.279,2.818c0,3.446,1.172,6.222,2.637,6.222a.272.272,0,0,0,.1-.014Z" transform="translate(-57.76 -10.54)" fill="#db4554"/>
        </g>
        <g id="Grupo_930483" data-name="Grupo 930483" transform="translate(0 11.258)">
          <path id="Trazado_667293" data-name="Trazado 667293" d="M61.593,35.845a6.618,6.618,0,0,1-6.613-6.613V20.82a2.929,2.929,0,0,1,2.93-2.93h7.352a2.929,2.929,0,0,1,2.93,2.93v8.412a6.6,6.6,0,0,1-6.6,6.613ZM57.91,19.885a.935.935,0,0,0-.935.935v8.412a4.6,4.6,0,1,0,9.208,0V20.82a.935.935,0,0,0-.935-.935Z" transform="translate(-54.98 -17.89)"/>
        </g>
        <g id="Grupo_930484" data-name="Grupo 930484" transform="translate(2.874)">
          <path id="Trazado_667294" data-name="Trazado 667294" d="M63.513,23.073H58.044a1,1,0,0,1-1-1v-8.51a3.739,3.739,0,1,1,7.478,0v8.524A1,1,0,0,1,63.513,23.073Zm-4.464-1.995h3.474v-7.52a1.73,1.73,0,0,0-3.46,0v7.52Z" transform="translate(-57.04 -9.82)"/>
        </g>
      </g>
      <g id="Grupo_930492" data-name="Grupo 930492" transform="translate(63.338 39.034)">
        <g id="Grupo_930486" data-name="Grupo 930486" transform="translate(1.004 12.277)">
          <path id="Trazado_667295" data-name="Trazado 667295" d="M57.777,39.175v8.412a5.608,5.608,0,1,1-11.217,0V39.175a1.929,1.929,0,0,1,1.925-1.925h7.352A1.914,1.914,0,0,1,57.777,39.175Z" transform="translate(-46.56 -37.25)" fill="#a0ce69"/>
        </g>
        <g id="Grupo_930487" data-name="Grupo 930487" transform="translate(1.004 12.263)">
          <path id="Trazado_667296" data-name="Trazado 667296" d="M57.442,49.489A5.612,5.612,0,0,1,52.168,53.2a5.621,5.621,0,0,1-5.608-5.608V39.179A1.935,1.935,0,0,1,48.5,37.24h3.669c0,6.794,2.134,12.3,4.785,12.3A1.5,1.5,0,0,0,57.442,49.489Z" transform="translate(-46.56 -37.24)" fill="#8abf4f"/>
        </g>
        <g id="Grupo_930488" data-name="Grupo 930488" transform="translate(3.878 1.018)">
          <path id="Trazado_667297" data-name="Trazado 667297" d="M54.089,31.914v8.524H48.62V31.914a2.734,2.734,0,0,1,5.469,0Z" transform="translate(-48.62 -29.18)" fill="#a0ce69"/>
        </g>
        <g id="Grupo_930489" data-name="Grupo 930489" transform="translate(3.878 1.004)">
          <path id="Trazado_667298" data-name="Trazado 667298" d="M54.089,38.21v2.218H48.62V31.9a2.739,2.739,0,0,1,2.734-2.734,1.87,1.87,0,0,1,.279.014A14.5,14.5,0,0,0,51.354,32c0,3.446,1.172,6.222,2.637,6.222a.272.272,0,0,0,.1-.014Z" transform="translate(-48.62 -29.17)" fill="#8abf4f"/>
        </g>
        <g id="Grupo_930490" data-name="Grupo 930490" transform="translate(0 11.272)">
          <path id="Trazado_667299" data-name="Trazado 667299" d="M52.453,54.485a6.627,6.627,0,0,1-6.613-6.613V39.46a2.929,2.929,0,0,1,2.93-2.93h7.352a2.929,2.929,0,0,1,2.93,2.93v8.412A6.606,6.606,0,0,1,52.453,54.485ZM48.77,38.525a.935.935,0,0,0-.935.935v8.412a4.6,4.6,0,1,0,9.208,0V39.46a.935.935,0,0,0-.935-.935Z" transform="translate(-45.84 -36.53)" fill="#000104"/>
        </g>
        <g id="Grupo_930491" data-name="Grupo 930491" transform="translate(2.874)">
          <path id="Trazado_667300" data-name="Trazado 667300" d="M54.373,41.717H48.9a1,1,0,0,1-1-1V32.189a3.739,3.739,0,1,1,7.478,0v8.524A1,1,0,0,1,54.373,41.717Zm-4.478-2.009h3.474v-7.52a1.73,1.73,0,0,0-3.46,0v7.52Z" transform="translate(-47.9 -28.45)" fill="#000104"/>
        </g>
      </g>
    </g>
  </g>
</svg>
