<svg xmlns="http://www.w3.org/2000/svg" width="517.665" height="330.228" viewBox="0 0 517.665 330.228">
  <g id="Grupo_936800" data-name="Grupo 936800" transform="translate(-866.335 -3557.772)">
    <g id="Grupo_936632" data-name="Grupo 936632" transform="translate(-1955.663 734.549)">
      <path id="Trazado_667151" data-name="Trazado 667151" d="M2935.835,2969.667c38.011,1.2,75.037-11.987,102.186-34.652,52.91-44.171,145.725-44.962,218.6-10.645,15.109,7.114,49.6,31.931,68.991,68.952,2.894,5.525,30.3,68.007-.312,117.273-2.379,3.829-25.128,28.4-47.232,35.53-5.534,1.785-387.705.989-390.386,0C2771.7,3103.237,2822.9,2966.094,2935.835,2969.667Z" fill="#25ffff" opacity="0.22"/>
      <ellipse id="Elipse_4928" data-name="Elipse 4928" cx="223.048" cy="12.618" rx="223.048" ry="12.618" transform="translate(2867.552 3128.215)" fill="#bcd7e6"/>
    </g>
    <g id="Grupo_936658" data-name="Grupo 936658" transform="translate(-443.84 3312.813)">
      <rect id="Rectángulo_329676" data-name="Rectángulo 329676" width="203.297" height="278.872" transform="translate(1443.84 272.26)" fill="#a9bae6"/>
      <g id="Grupo_936656" data-name="Grupo 936656" transform="translate(1452.949 283.499)">
        <g id="Grupo_936633" data-name="Grupo 936633" transform="translate(0 0)">
          <rect id="Rectángulo_329677" data-name="Rectángulo 329677" width="167.328" height="243.065" transform="translate(9.265)" fill="#f6f5f5"/>
          <path id="Trazado_678089" data-name="Trazado 678089" d="M1704.279,440.287c.052,94.782,3.112,209.094-7.534,234.4-46.895,4.569-101.8,6.035-159.8,6.308l22.044-239.979Z" transform="translate(-1527.686 -440.286)" fill="#e4e4e4"/>
          <path id="Trazado_678090" data-name="Trazado 678090" d="M1651.567,667.076c-73.092,11.7-121.943,12.315-161.564,9.373,5.134-54.656,7.193-145.454,9.263-236.106l88.078.2,79.714,5.262C1668.219,539.888,1668.346,626.8,1651.567,667.076Z" transform="translate(-1490.003 -440.331)" fill="#fff"/>
        </g>
        <g id="Grupo_936655" data-name="Grupo 936655" transform="translate(26.104 22.416)">
          <rect id="Rectángulo_329678" data-name="Rectángulo 329678" width="88.049" height="13.412" transform="translate(21.609 0) rotate(1.348)" fill="#708cd5"/>
          <g id="Grupo_936654" data-name="Grupo 936654" transform="translate(0 26.165)">
            <g id="Grupo_936637" data-name="Grupo 936637" transform="translate(2.948)">
              <g id="Grupo_936634" data-name="Grupo 936634" transform="translate(43.798 6.849)">
                <rect id="Rectángulo_329679" data-name="Rectángulo 329679" width="79.42" height="6.139" transform="matrix(1, 0.024, -0.024, 1, 0.459, 0)" fill="#708cd5"/>
                <rect id="Rectángulo_329680" data-name="Rectángulo 329680" width="53.983" height="6.139" transform="translate(0.144 13.381) rotate(1.348)" fill="#d3dfff"/>
              </g>
              <g id="Grupo_936636" data-name="Grupo 936636">
                <rect id="Rectángulo_329681" data-name="Rectángulo 329681" width="18.802" height="18.802" transform="matrix(1, 0.024, -0.024, 1, 0.442, 6.179)" fill="#fff" stroke="#708cd5" stroke-miterlimit="10" stroke-width="6"/>
                <g id="Grupo_936635" data-name="Grupo 936635" transform="translate(3.469)">
                  <path id="Trazado_678091" data-name="Trazado 678091" d="M1654.859,697.619c.58,2.222,1.652,11.528,6.312,8.926,1.075-.6,1.985-2.186,2.789-3.1l4.336-4.922,8.671-9.845c.741-.841-2.53-2.95-3.46-1.894l-7.708,8.751-3.854,4.375c-.891,1.012-2.953,4.277-4.276,4.566l2.158.7c.508.417-.436-2.539-.457-2.62l-1.076-4.118c-.3-1.134-3.875-2.5-3.436-.817Z" transform="translate(-1654.822 -686.495)" fill="#ee6f57"/>
                </g>
              </g>
            </g>
            <g id="Grupo_936641" data-name="Grupo 936641" transform="translate(2.144 34.703)">
              <g id="Grupo_936638" data-name="Grupo 936638" transform="translate(43.798 6.318)">
                <rect id="Rectángulo_329682" data-name="Rectángulo 329682" width="65.401" height="6.139" transform="translate(0.459) rotate(1.348)" fill="#708cd5"/>
                <rect id="Rectángulo_329683" data-name="Rectángulo 329683" width="79.42" height="6.139" transform="translate(0.144 13.381) rotate(1.348)" fill="#d3dfff"/>
              </g>
              <g id="Grupo_936640" data-name="Grupo 936640">
                <rect id="Rectángulo_329684" data-name="Rectángulo 329684" width="18.802" height="18.802" transform="matrix(1, 0.024, -0.024, 1, 0.442, 5.648)" fill="#fff" stroke="#708cd5" stroke-miterlimit="10" stroke-width="6"/>
                <g id="Grupo_936639" data-name="Grupo 936639" transform="translate(3.456)">
                  <path id="Trazado_678092" data-name="Trazado 678092" d="M1650.719,873.5c.58,2.222,1.652,11.528,6.313,8.926,1.075-.6,1.985-2.187,2.789-3.1l4.335-4.922,8.671-9.845c.74-.841-2.53-2.95-3.46-1.894l-7.708,8.751-3.854,4.375c-.892,1.012-2.953,4.277-4.276,4.566l2.158.7c.508.417-.436-2.539-.457-2.62l-1.075-4.118c-.3-1.134-3.875-2.5-3.436-.817Z" transform="translate(-1650.682 -862.373)" fill="#ee6f57"/>
                </g>
              </g>
            </g>
            <g id="Grupo_936645" data-name="Grupo 936645" transform="translate(1.34 69.118)">
              <g id="Grupo_936642" data-name="Grupo 936642" transform="translate(43.798 6.076)">
                <rect id="Rectángulo_329685" data-name="Rectángulo 329685" width="79.42" height="6.139" transform="translate(0.459 0) rotate(1.348)" fill="#708cd5"/>
                <rect id="Rectángulo_329686" data-name="Rectángulo 329686" width="35.518" height="6.139" transform="translate(0.144 13.381) rotate(1.348)" fill="#d3dfff"/>
              </g>
              <g id="Grupo_936644" data-name="Grupo 936644">
                <rect id="Rectángulo_329687" data-name="Rectángulo 329687" width="18.802" height="18.802" transform="matrix(1, 0.024, -0.024, 1, 0.442, 5.406)" fill="#fff" stroke="#708cd5" stroke-miterlimit="10" stroke-width="6"/>
                <g id="Grupo_936643" data-name="Grupo 936643" transform="translate(3.711)">
                  <path id="Trazado_678093" data-name="Trazado 678093" d="M1647.937,1047.918c.58,2.222,1.652,11.528,6.312,8.926,1.075-.6,1.985-2.187,2.789-3.1l4.336-4.922,8.671-9.844c.741-.841-2.53-2.95-3.46-1.895l-7.707,8.751-3.854,4.375c-.891,1.012-2.953,4.276-4.276,4.566l2.158.7c.508.417-.436-2.539-.457-2.62l-1.075-4.118c-.3-1.134-3.875-2.5-3.436-.817Z" transform="translate(-1647.899 -1036.794)" fill="#ee6f57"/>
                </g>
              </g>
            </g>
            <g id="Grupo_936649" data-name="Grupo 936649" transform="translate(0.535 103.067)">
              <g id="Grupo_936646" data-name="Grupo 936646" transform="translate(43.798 6.3)">
                <rect id="Rectángulo_329688" data-name="Rectángulo 329688" width="79.42" height="6.139" transform="translate(0.459) rotate(1.348)" fill="#708cd5"/>
                <rect id="Rectángulo_329689" data-name="Rectángulo 329689" width="62.739" height="6.139" transform="matrix(1, 0.024, -0.024, 1, 0.144, 13.381)" fill="#d3dfff"/>
              </g>
              <g id="Grupo_936648" data-name="Grupo 936648">
                <rect id="Rectángulo_329690" data-name="Rectángulo 329690" width="18.802" height="18.802" transform="matrix(1, 0.024, -0.024, 1, 0.442, 5.63)" fill="#fff" stroke="#708cd5" stroke-miterlimit="10" stroke-width="6"/>
                <g id="Grupo_936647" data-name="Grupo 936647" transform="translate(3.717)">
                  <path id="Trazado_678094" data-name="Trazado 678094" d="M1643.887,1219.973c.58,2.222,1.652,11.528,6.312,8.926,1.075-.6,1.985-2.187,2.789-3.1l4.336-4.922,8.671-9.845c.741-.841-2.53-2.95-3.46-1.894l-7.708,8.751-3.854,4.375c-.891,1.012-2.953,4.277-4.276,4.566l2.158.7c.508.417-.436-2.539-.457-2.62l-1.076-4.118c-.3-1.134-3.875-2.5-3.436-.817Z" transform="translate(-1643.85 -1208.849)" fill="#ee6f57"/>
                </g>
              </g>
            </g>
            <g id="Grupo_936653" data-name="Grupo 936653" transform="translate(0 136.718)">
              <g id="Grupo_936650" data-name="Grupo 936650" transform="translate(43.535 6.563)">
                <rect id="Rectángulo_329691" data-name="Rectángulo 329691" width="31.482" height="6.139" transform="matrix(1, 0.024, -0.024, 1, 0.459, 0)" fill="#708cd5"/>
                <path id="Trazado_678095" data-name="Trazado 678095" d="M1922.484,1482.344l-79.4-1.869-.144,6.137c30.718.721,69.831,2.16,77.811.935A6.889,6.889,0,0,0,1922.484,1482.344Z" transform="translate(-1842.942 -1467.094)" fill="#d3dfff"/>
              </g>
              <g id="Grupo_936652" data-name="Grupo 936652">
                <rect id="Rectángulo_329692" data-name="Rectángulo 329692" width="18.802" height="18.802" transform="translate(0.442 5.899) rotate(1.348)" fill="#fff" stroke="#708cd5" stroke-miterlimit="10" stroke-width="6"/>
                <g id="Grupo_936651" data-name="Grupo 936651" transform="translate(3.46)">
                  <path id="Trazado_678096" data-name="Trazado 678096" d="M1639.874,1390.521c.58,2.222,1.652,11.528,6.312,8.926,1.075-.6,1.985-2.186,2.789-3.1l4.336-4.922,8.671-9.845c.741-.841-2.53-2.95-3.46-1.895l-7.707,8.751-3.854,4.375c-.891,1.012-2.953,4.277-4.276,4.566l2.158.7c.508.417-.436-2.539-.457-2.62l-1.075-4.118c-.3-1.134-3.875-2.5-3.436-.817Z" transform="translate(-1639.836 -1379.397)" fill="#ee6f57"/>
                </g>
              </g>
            </g>
          </g>
        </g>
      </g>
      <g id="Grupo_936657" data-name="Grupo 936657" transform="translate(1501.684 244.96)">
        <path id="Trazado_678097" data-name="Trazado 678097" d="M1843.373,273.949v18.76H1768v-18.76a10.829,10.829,0,0,1,3.173-7.664,8.977,8.977,0,0,1,.766-.687,10.757,10.757,0,0,1,6.9-2.486,12.763,12.763,0,0,0,5.541-1.263,13.275,13.275,0,0,0,2.083-1.255,12.754,12.754,0,0,0,4.625-6.559,12.809,12.809,0,0,1,12.249-9.076h4.7a12.808,12.808,0,0,1,12.249,9.076,12.755,12.755,0,0,0,4.625,6.559A13.271,13.271,0,0,0,1827,261.85a12.762,12.762,0,0,0,5.541,1.263,10.85,10.85,0,0,1,10.836,10.836Z" transform="translate(-1761.883 -244.96)" fill="#ee6f57"/>
        <path id="Trazado_678098" data-name="Trazado 678098" d="M1824.607,440.28v13.946H1737V440.28h6.117v9.211h75.373V440.28Z" transform="translate(-1737 -401.741)" fill="#e4e4e4"/>
        <ellipse id="Elipse_5318" data-name="Elipse 5318" cx="6.685" cy="6.354" rx="6.685" ry="6.354" transform="translate(37.119 4.891)" fill="#fff"/>
      </g>
    </g>
    <g id="Grupo_936659" data-name="Grupo 936659" transform="translate(810.416 3561.492)">
      <g id="Grupo_930302" data-name="Grupo 930302" transform="translate(363.469 44.446)">
        <g id="Grupo_930301" data-name="Grupo 930301">
          <ellipse id="Elipse_4934" data-name="Elipse 4934" cx="10.1" cy="17.476" rx="10.1" ry="17.476" transform="translate(87.785 52.698)" fill="#fff"/>
          <path id="Trazado_667220" data-name="Trazado 667220" d="M4643.949,3931.114c0,1.865,23.815,3.377,53.192,3.377s53.192-1.512,53.192-3.377-23.814-3.378-53.192-3.378S4643.949,3929.248,4643.949,3931.114Z" transform="translate(-4643.949 -3665.485)" fill="#636363" opacity="0.3"/>
          <path id="Trazado_667221" data-name="Trazado 667221" d="M4716.025,3369.6a5.6,5.6,0,0,0-5.131-3.716,8.254,8.254,0,0,0-6.035,3.194,12.976,12.976,0,0,0-2.568,6.468c-.388,2.918-.074,5.952-.973,8.755-1.084,3.381-3.794,6-5.252,9.232-2.447,5.427-.882,12.221,3.251,16.506a19.581,19.581,0,0,0,16.367,5.375,21.246,21.246,0,0,0,16.6-11.978,18.675,18.675,0,0,0-3.112-19.95c-1.67-1.776-3.744-3.229-4.953-5.345-1.1-1.921-1.375-4.213-2.386-6.181S4718.064,3368.742,4716.025,3369.6Z" transform="translate(-4678.101 -3288.897)" fill="#7a4836"/>
          <path id="Trazado_667222" data-name="Trazado 667222" d="M4817.129,3897.344a50.972,50.972,0,0,1,2.822-13.289,7.4,7.4,0,0,0,4.311.588,21.919,21.919,0,0,0,.137,7.01c.507,2.3,1.168,4.524,3.158,5.878a12.152,12.152,0,0,0,3.6,1.838.749.749,0,0,1,.128.053c2.168.917,5.03,1.191,7.419,3.27a1.076,1.076,0,0,1-.673,1.768c-1.129.151-2.295.261-3.479.336a46.527,46.527,0,0,1-17.542-1.8A44.777,44.777,0,0,1,4817.129,3897.344Z" transform="translate(-4759.916 -3636.208)" fill="#3b3a3d"/>
          <g id="Grupo_930294" data-name="Grupo 930294" transform="translate(13.008 248.385)">
            <path id="Trazado_667223" data-name="Trazado 667223" d="M4690.327,3894.289c-.02-.142,1.491-7.691,1.483-7.906-.035-.931-1.434-1.161-2.591.746-2.281,3.759-4.64-.907-4.718.7-.3,6.241-2.048,13.443-.411,15.665,1.141,1.549,5.01,2.65,7.838,2.574s3.493-.884.7-6.083A20.207,20.207,0,0,1,4690.327,3894.289Z" transform="translate(-4683.398 -3885.683)" fill="#3b3a3d"/>
          </g>
          <path id="Trazado_667224" data-name="Trazado 667224" d="M4702.91,3549.341a46.581,46.581,0,0,1,2.829-11.657,17.414,17.414,0,0,1,5.963-7.924l2.245.054,3.545.081,7.513.17c.156.262.572-.851,2.6,4.186l1.52,3.028c8.229,28.018,7.863,116.726,7.863,116.726-5.007,3.319-8.987,1.319-8.987,1.319l-4.2-42.4-6.033-45.5.606-2.924c-.08-.315-.159-.625-.239-.936-3.017,20.073-11.268,55.952-25.774,88.233a12.141,12.141,0,0,1-7.978-3.283C4686.688,3644.3,4701.312,3575.589,4702.91,3549.341Z" transform="translate(-4671.054 -3398.737)" fill="#9a7242"/>
          <path id="Trazado_667225" data-name="Trazado 667225" d="M4690.96,3657.383c9.172-28.073,14.492-57.563,19.016-86.764.076-.491.151-.981.223-1.472q.441-2.812.86-5.619c.433-2.824.852-5.646,1.238-8.475.07-.518.855-.3.784.218q-.85,6.262-1.8,12.524a23.594,23.594,0,0,0,4.387-10.638c.082-.518.867-.294.79.218a24.235,24.235,0,0,1-5.422,12.055c-3.068,20.04-6.867,40.015-11.494,59.722-2.251,9.576-4.742,19.1-7.794,28.45C4691.587,3658.1,4690.8,3657.885,4690.96,3657.383Z" transform="translate(-4675.444 -3415.492)" fill="#6d4927"/>
          <path id="Trazado_667226" data-name="Trazado 667226" d="M4780.625,3333.19l-5.969,27.04a5.5,5.5,0,0,1-2,3.393,75.157,75.157,0,0,1-14.923,9.4c-.9.409-1.811.792-2.729,1.131l-2.3.723a28.217,28.217,0,0,1,1.437,4.958c-.034.127-.06.264-.093.4a35.987,35.987,0,0,0-.834,4.608c-.569,6.352,4.669,13.895,5.621,21.377-.714,1.786-4.932,2.891-9.523,3.563s-13.01-.025-16.607-1.547c1.974-11.394,5.484-9.558,1.1-20.569a39.011,39.011,0,0,0-2.729-4.2c-3.947-5.806-4.112-10.044-3.445-12.7a5.409,5.409,0,0,1,4.435-3.988,45.547,45.547,0,0,0,4.913-.175l6.836-.689a54.615,54.615,0,0,0,7.823-2.194,63.729,63.729,0,0,0,15.493-7.865l8.971-25.926Z" transform="translate(-4699.837 -3264.795)" fill="#efc351"/>
          <path id="Trazado_667227" data-name="Trazado 667227" d="M4747.186,3438.775s12.945,11.937,9.383-1.491C4756.568,3437.284,4749.721,3434.218,4747.186,3438.775Z" transform="translate(-4713.145 -3336.078)" fill="#e8a29a"/>
          <g id="Grupo_930295" data-name="Grupo 930295" transform="translate(44.715 153.175)">
            <path id="Trazado_667228" data-name="Trazado 667228" d="M4783.338,3597.332c.054-.518.873-.523.817,0q-.313,3-.714,5.989a8.689,8.689,0,0,0,1.634-3.91c.082-.518.87-.3.789.217a9.4,9.4,0,0,1-2.631,5.19c-.758,5.35-1.714,10.674-2.876,15.937-.114.514-.9.3-.789-.218A208.3,208.3,0,0,0,4783.338,3597.332Z" transform="translate(-4779.556 -3596.941)" fill="#6d4927"/>
          </g>
          <g id="Grupo_930296" data-name="Grupo 930296" transform="translate(63.868 89.781)">
            <path id="Trazado_667229" data-name="Trazado 667229" d="M4837.774,3407.788a29.355,29.355,0,0,0,4.625-3.033c.264-.229.651.155.386.386a30.212,30.212,0,0,1-4.734,3.118.273.273,0,0,1-.276-.471Z" transform="translate(-4837.643 -3404.685)" fill="#d6a54c"/>
          </g>
          <g id="Grupo_930297" data-name="Grupo 930297" transform="translate(47.527 102.748)">
            <path id="Trazado_667230" data-name="Trazado 667230" d="M4793.568,3461.85c.686-3.543,1.094-7.365-.691-10.672-1.283-2.378-3.378-4.212-4.736-6.557a.409.409,0,0,1,.707-.412c1.666,2.875,4.4,5.055,5.486,8.267,1.053,3.109.633,6.438.023,9.591-.1.516-.889.3-.79-.218Z" transform="translate(-4788.083 -3444.011)" fill="#c59832"/>
          </g>
          <path id="Trazado_667231" data-name="Trazado 667231" d="M4752.381,3417.171a7.3,7.3,0,0,1-4.32,1.911,6.776,6.776,0,0,1-4.387-1.252,33.652,33.652,0,0,0-.125-3.418c-.023-.263-.045-.526-.075-.785-.038-.327-.076-.627-.117-.928a23.964,23.964,0,0,0-.717-3.347c-.021-.078-.039-.159-.063-.236-.1-.374-.208-.746-.324-1.116a32.827,32.827,0,0,0-1.374-3.675,18.3,18.3,0,0,1,6.5,2.433c.093.386.2.772.307,1.152s.22.758.343,1.136c.042.122.08.249.124.362.147.444.305.876.472,1.306.011.035.027.069.038.1.129.326.258.652.4.973.1.242.208.48.316.713A25.474,25.474,0,0,0,4752.381,3417.171Z" transform="translate(-4708.918 -3314.662)" fill="#e8a29b"/>
          <path id="Trazado_667232" data-name="Trazado 667232" d="M4753.65,3419.828c-4.354.247-6.419-3.8-6.419-3.8l4.712-.828c.106.379.22.758.345,1.136.042.123.08.249.123.363.148.443.3.875.472,1.305.012.035.027.069.038.1.13.326.258.652.4.973.1.242.207.48.317.714C4753.64,3419.808,4753.645,3419.814,4753.65,3419.828Z" transform="translate(-4713.175 -3321.95)" fill="#d57682"/>
          <path id="Trazado_667233" data-name="Trazado 667233" d="M4748.954,3392.174c-.792,1.663-3.463,2.43-5.294,2.237a7.065,7.065,0,0,1-4.423-2.222c-.076-.077-.154-.153-.23-.233-.059-.21-.127-.418-.207-.625-.21-.551-.482-1.086-.738-1.619a6.613,6.613,0,0,1-.832-2.808,4.907,4.907,0,0,1,1.429-3.235,40.785,40.785,0,0,1,4.936-3.533l1.215,2.276a8.645,8.645,0,0,0,.47.883c.878,1.458,2.054,2.726,2.879,4.216S4749.681,3390.635,4748.954,3392.174Z" transform="translate(-4706.471 -3298.449)" fill="#e8a29b"/>
          <path id="Trazado_667234" data-name="Trazado 667234" d="M4735.991,3406.292c-.161-.323-.415-.666-.773-.676a.915.915,0,0,0-.771.643,2.241,2.241,0,0,0,3.1,2.857C4737.085,3408.174,4736.461,3407.229,4735.991,3406.292Z" transform="translate(-4704.496 -3315.528)" fill="#e8a29b"/>
          <g id="Grupo_930298" data-name="Grupo 930298" transform="translate(38.118 87.65)">
            <path id="Trazado_667235" data-name="Trazado 667235" d="M4759.555,3399.9c0,.052.15.061.326-.022a1.156,1.156,0,0,0,.568-.558,1.2,1.2,0,0,0,.118-.556.823.823,0,0,0-.153-.493c-.039-.046-.068-.059-.1-.043a.062.062,0,0,0-.032.03,2.958,2.958,0,0,0-.058.387,1.789,1.789,0,0,1-.12.432.256.256,0,0,1-.022.053,1.866,1.866,0,0,1-.374.532C4759.607,3399.776,4759.534,3399.85,4759.555,3399.9Z" transform="translate(-4759.551 -3398.222)" fill="#c26476"/>
          </g>
          <g id="Grupo_930300" data-name="Grupo 930300" transform="translate(36.41 89.174)">
            <g id="Grupo_930299" data-name="Grupo 930299">
              <path id="Trazado_667236" data-name="Trazado 667236" d="M4754.607,3404.478a9.046,9.046,0,0,0,3.635-1.547.353.353,0,0,1,.563.142c1.323,4.222-3,3.456-4.307,1.953C4754.311,3404.809,4754.314,3404.53,4754.607,3404.478Z" transform="translate(-4754.37 -3402.843)" fill="#fff"/>
            </g>
          </g>
          <path id="Trazado_667237" data-name="Trazado 667237" d="M4756.964,3458.366s15.046-4.395,16.951,3.28a11.017,11.017,0,0,0-6.188-10.252Z" transform="translate(-4719.699 -3346.211)" fill="#c59832"/>
          <path id="Trazado_667238" data-name="Trazado 667238" d="M4825.169,3135.845a3.576,3.576,0,0,0-7.146,0c-3.325,27.78-45.5,58.812-21.6,87.68,13.575,16.394,43.445,14.5,53.545-4.772C4864.361,3187.016,4828.667,3165.146,4825.169,3135.845Zm13.92,81.846c-4.267,0-7.727-6.914-7.727-15.443s3.46-15.443,7.727-15.443,7.728,6.914,7.728,15.443S4843.358,3217.691,4839.089,3217.691Z" transform="translate(-4741.257 -3132.405)" fill="#a7d6eb"/>
          <path id="Trazado_667239" data-name="Trazado 667239" d="M4834.025,3330.822a15.026,15.026,0,0,1,.789,3.869,3.284,3.284,0,0,1-.346,2.074,3.636,3.636,0,0,1-1.207,1.029c-.707.441-2.432,1.776-3.145,2.219l-2.345-2.207a23.921,23.921,0,0,1,.08-6.075.211.211,0,0,1,.311-.164c.7.393.823.858,1.025,2.684q1.714-1.982,3.417-3.958a.976.976,0,0,1,.426-.344C4833.5,3329.8,4833.865,3330.361,4834.025,3330.822Z" transform="translate(-4767.043 -3264.795)" fill="#e8a29b"/>
          <path id="Trazado_667240" data-name="Trazado 667240" d="M4772.607,3355.506l-9.64,25.959a5.507,5.507,0,0,1-2.447,3.085,75.2,75.2,0,0,1-16.076,7.249,98.347,98.347,0,0,1-4.757-10.054,63.785,63.785,0,0,0,16.43-5.655l12.458-24.442Z" transform="translate(-4708.118 -3279.356)" fill="#efc351"/>
        </g>
      </g>
    </g>
  </g>
</svg>
