<svg xmlns="http://www.w3.org/2000/svg" width="120" height="120" viewBox="0 0 120 120">
  <g id="big-data" transform="translate(-1 -1)">
    <g id="Grupo_936707" data-name="Grupo 936707" transform="translate(2.935 2.935)">
      <circle id="Elipse_5319" data-name="Elipse 5319" cx="23" cy="23" r="23" transform="translate(35.064 35.064)" fill="#69d6f4"/>
      <g id="Grupo_936706" data-name="Grupo 936706" transform="translate(0 0)">
        <path id="Trazado_678194" data-name="Trazado 678194" d="M69.355,49.226H53.871A3.87,3.87,0,0,1,50,45.355V29.871A3.87,3.87,0,0,1,53.871,26H69.355a3.87,3.87,0,0,1,3.871,3.871V45.355A3.87,3.87,0,0,1,69.355,49.226Z" transform="translate(42.903 20.452)" fill="#fcd770"/>
        <path id="Trazado_678195" data-name="Trazado 678195" d="M45.355,73.226H29.871A3.87,3.87,0,0,1,26,69.355V53.871A3.87,3.87,0,0,1,29.871,50H45.355a3.87,3.87,0,0,1,3.871,3.871V69.355A3.87,3.87,0,0,1,45.355,73.226Z" transform="translate(20.452 42.903)" fill="#fcd770"/>
        <path id="Trazado_678196" data-name="Trazado 678196" d="M21.355,49.226H5.871A3.87,3.87,0,0,1,2,45.355V29.871A3.87,3.87,0,0,1,5.871,26H21.355a3.87,3.87,0,0,1,3.871,3.871V45.355A3.87,3.87,0,0,1,21.355,49.226Z" transform="translate(-2 20.452)" fill="#fcd770"/>
        <path id="Trazado_678197" data-name="Trazado 678197" d="M45.355,25.226H29.871A3.87,3.87,0,0,1,26,21.355V5.871A3.87,3.87,0,0,1,29.871,2H45.355a3.87,3.87,0,0,1,3.871,3.871V21.355A3.87,3.87,0,0,1,45.355,25.226Z" transform="translate(20.452 -2)" fill="#fcd770"/>
      </g>
      <ellipse id="Elipse_5320" data-name="Elipse 5320" cx="3.5" cy="4" rx="3.5" ry="4" transform="translate(10.064 108.064)" fill="#ff826e"/>
      <path id="Trazado_678198" data-name="Trazado 678198" d="M71.161,11.677a5.806,5.806,0,1,1,0,11.613H51.806a5.806,5.806,0,0,1,0-11.613,9.677,9.677,0,1,1,19.355,0Z" transform="translate(39.161 -2)" fill="#e6e9ed"/>
      <circle id="Elipse_5321" data-name="Elipse 5321" cx="17.5" cy="17.5" r="17.5" transform="translate(0.064 0.064)" fill="#e6e9ed"/>
      <path id="Trazado_678199" data-name="Trazado 678199" d="M17.277,12a13.518,13.518,0,0,1,12.968,9.658l.019.019c-.232.232-.445.465-.677.7a17.406,17.406,0,0,1-25.3-.7l.019-.019A13.518,13.518,0,0,1,17.277,12Z" transform="translate(0.142 7.355)" fill="#ff826e"/>
      <circle id="Elipse_5322" data-name="Elipse 5322" cx="5.5" cy="5.5" r="5.5" transform="translate(12.064 8.064)" fill="#f0d0b4"/>
      <path id="Trazado_678200" data-name="Trazado 678200" d="M78.839,51.871V71.226A3.882,3.882,0,0,1,74.968,75.1h-27.1A3.882,3.882,0,0,1,44,71.226V51.871A3.882,3.882,0,0,1,47.871,48h27.1A3.882,3.882,0,0,1,78.839,51.871Z" transform="translate(37.29 41.032)" fill="#f0d0b4"/>
    </g>
    <g id="Grupo_936708" data-name="Grupo 936708" transform="translate(1 1)">
      <path id="Trazado_678201" data-name="Trazado 678201" d="M11.806,57a5.806,5.806,0,1,0,5.806,5.806A5.814,5.814,0,0,0,11.806,57Zm0,7.742a1.935,1.935,0,1,1,1.935-1.935A1.937,1.937,0,0,1,11.806,64.742Z" transform="translate(3.677 51.387)"/>
      <path id="Trazado_678202" data-name="Trazado 678202" d="M4.051,56.968,6.788,59.7a9.677,9.677,0,0,1,13.684,0l2.737-2.737a13.546,13.546,0,0,0-19.157,0Z" transform="translate(1.854 47.645)"/>
      <path id="Trazado_678203" data-name="Trazado 678203" d="M1.222,55.231l2.737,2.737a17.442,17.442,0,0,1,24.637,0l2.737-2.737a21.316,21.316,0,0,0-30.11,0Z" transform="translate(-0.792 43.908)"/>
      <path id="Trazado_678204" data-name="Trazado 678204" d="M70.226,62.613H66.355V54.871H62.484v7.742H58.613V58.742H54.742v3.871H50.871V51H47V66.484H70.226Z" transform="translate(42.032 45.774)"/>
      <path id="Trazado_678205" data-name="Trazado 678205" d="M115.194,47.452H99.71A5.814,5.814,0,0,0,93.9,53.258v5.806H86.063a25.018,25.018,0,0,0-5.977-14.414l18.49-18.49h14.683a7.743,7.743,0,0,0,1.81-15.271,11.616,11.616,0,0,0-22.974,0,7.72,7.72,0,0,0,1.082,15.2L77.349,41.914a25.023,25.023,0,0,0-14.414-5.977V28.1h5.806a5.814,5.814,0,0,0,5.806-5.806V6.806A5.814,5.814,0,0,0,68.742,1H53.258a5.814,5.814,0,0,0-5.806,5.806V22.29A5.814,5.814,0,0,0,53.258,28.1h5.806v7.841a25.018,25.018,0,0,0-14.414,5.977l-9.317-9.319a19.4,19.4,0,1,0-2.739,2.737l9.317,9.319a25.023,25.023,0,0,0-5.977,14.414H28.1V53.258a5.814,5.814,0,0,0-5.806-5.806H6.806A5.814,5.814,0,0,0,1,53.258V68.742a5.814,5.814,0,0,0,5.806,5.806H22.29A5.814,5.814,0,0,0,28.1,68.742V62.935h7.841a25.018,25.018,0,0,0,5.977,14.414L28.664,90.6,31.4,93.336l13.25-13.25a25.023,25.023,0,0,0,14.414,5.977V93.9H53.258a5.814,5.814,0,0,0-5.806,5.806v15.484A5.814,5.814,0,0,0,53.258,121H68.742a5.814,5.814,0,0,0,5.806-5.806V99.71A5.814,5.814,0,0,0,68.742,93.9H62.935V86.063a25.018,25.018,0,0,0,14.414-5.977l10.02,10.02a5.794,5.794,0,0,0-5.079,5.733v19.355A5.814,5.814,0,0,0,88.1,121h27.1A5.814,5.814,0,0,0,121,115.194V95.839a5.814,5.814,0,0,0-5.806-5.806H92.769L80.086,77.349a25.023,25.023,0,0,0,5.977-14.414H93.9v5.806a5.814,5.814,0,0,0,5.806,5.806h15.484A5.814,5.814,0,0,0,121,68.742V53.258a5.814,5.814,0,0,0-5.806-5.806ZM70.677,16.484H51.323V12.613H70.677ZM53.258,4.871H68.742a1.937,1.937,0,0,1,1.935,1.935V8.742H51.323V6.806A1.937,1.937,0,0,1,53.258,4.871ZM51.323,22.29V20.355H70.677V22.29a1.937,1.937,0,0,1-1.935,1.935H53.258A1.937,1.937,0,0,1,51.323,22.29ZM6.806,51.323H22.29a1.937,1.937,0,0,1,1.935,1.935v1.935H4.871V53.258A1.937,1.937,0,0,1,6.806,51.323Zm17.419,7.742v3.871H4.871V59.065ZM22.29,70.677H6.806a1.937,1.937,0,0,1-1.935-1.935V66.806H24.226v1.935A1.937,1.937,0,0,1,22.29,70.677Zm29.032,34.839H70.677v3.871H51.323Zm17.419,11.613H53.258a1.937,1.937,0,0,1-1.935-1.935v-1.935H70.677v1.935A1.937,1.937,0,0,1,68.742,117.129ZM70.677,99.71v1.935H51.323V99.71a1.937,1.937,0,0,1,1.935-1.935H68.742A1.937,1.937,0,0,1,70.677,99.71ZM61,82.29c-2.081,0-4.3-2.955-5.824-7.742h11.65C65.3,79.335,63.081,82.29,61,82.29ZM54.189,70.677a48,48,0,0,1-.89-7.742H68.7a48.213,48.213,0,0,1-.89,7.742ZM39.808,62.935H49.43a53.081,53.081,0,0,0,.792,7.742h-8.16a21.06,21.06,0,0,1-2.253-7.742ZM61,39.71c2.081,0,4.3,2.955,5.824,7.742H55.174C56.7,42.665,58.919,39.71,61,39.71Zm6.811,11.613a47.994,47.994,0,0,1,.89,7.742H53.3a48.214,48.214,0,0,1,.89-7.742ZM49.43,59.065H39.808a21.1,21.1,0,0,1,2.253-7.742h8.16a52.814,52.814,0,0,0-.792,7.742ZM72.57,62.935h9.621a21.1,21.1,0,0,1-2.253,7.742h-8.16A52.816,52.816,0,0,0,72.57,62.935Zm0-3.871a53.081,53.081,0,0,0-.792-7.742h8.16a21.134,21.134,0,0,1,2.253,7.742ZM90.032,18.419A3.875,3.875,0,0,1,93.9,14.548h1.935V12.613a7.742,7.742,0,0,1,15.308-1.643,7.756,7.756,0,0,0-5.63,7.45h3.871a3.871,3.871,0,1,1,3.871,3.871H93.9A3.875,3.875,0,0,1,90.032,18.419ZM77.411,47.452H70.883a26.749,26.749,0,0,0-2.692-6.466A21.385,21.385,0,0,1,77.411,47.452Zm-23.6-6.466a26.826,26.826,0,0,0-2.692,6.466H44.591A21.362,21.362,0,0,1,53.812,40.985ZM20.355,4.871A15.454,15.454,0,0,1,33.719,28.135a15.594,15.594,0,0,0-7.56-6.583,7.742,7.742,0,1,0-11.611,0,15.6,15.6,0,0,0-7.56,6.583A15.455,15.455,0,0,1,20.355,4.871ZM16.484,16.484a3.871,3.871,0,1,1,3.871,3.871A3.875,3.875,0,0,1,16.484,16.484ZM9.628,31.5a11.548,11.548,0,0,1,21.453,0,15.417,15.417,0,0,1-21.453,0ZM44.589,74.548h6.528a26.749,26.749,0,0,0,2.692,6.466A21.385,21.385,0,0,1,44.589,74.548Zm23.6,6.466a26.826,26.826,0,0,0,2.692-6.466h6.528A21.362,21.362,0,0,1,68.188,81.015Zm48.941,14.824v19.355a1.937,1.937,0,0,1-1.935,1.935H88.1a1.937,1.937,0,0,1-1.935-1.935V95.839A1.937,1.937,0,0,1,88.1,93.9h27.1A1.937,1.937,0,0,1,117.129,95.839ZM99.71,51.323h15.484a1.937,1.937,0,0,1,1.935,1.935v1.935H97.774V53.258A1.937,1.937,0,0,1,99.71,51.323Zm17.419,7.742v3.871H97.774V59.065Zm-1.935,11.613H99.71a1.937,1.937,0,0,1-1.935-1.935V66.806h19.355v1.935A1.937,1.937,0,0,1,115.194,70.677Z" transform="translate(-1 -1)"/>
    </g>
  </g>
</svg>
