<svg xmlns="http://www.w3.org/2000/svg" xmlns:xlink="http://www.w3.org/1999/xlink" width="191.399" height="176.958" viewBox="0 0 191.399 176.958">
  <defs>
    <linearGradient id="linear-gradient" x1="-13.337" y1="-40.221" x2="-12.357" y2="-40.021" gradientUnits="objectBoundingBox">
      <stop offset="0" stop-color="#09005d"/>
      <stop offset="1" stop-color="#1a0f91"/>
    </linearGradient>
  </defs>
  <g id="Grupo_936744" data-name="Grupo 936744" transform="translate(-4.852 240.298) rotate(-92)">
    <path id="Trazado_678231" data-name="Trazado 678231" d="M60.6,87.094C72.023,90.269,31.4,30.028,23.027,12.54S5.316.96,5.316.96l-2.105.786-.005.005A9.375,9.375,0,0,0,1.733,14.245C14.776,33.018,51.278,84.5,60.6,87.094Z" transform="translate(129.271 112.466) rotate(-49)" fill="#25ffff"/>
    <path id="Trazado_678470" data-name="Trazado 678470" d="M62.448,99.679c11.769,3.634-30.091-65.312-38.72-85.327S5.478,1.1,5.478,1.1L3.309,2,3.3,2A11.586,11.586,0,0,0,1.786,16.3C15.226,37.789,52.84,96.712,62.448,99.679Z" transform="translate(151.116 118.88) rotate(-169)" fill="#25ffff"/>
    <path id="Trazado_678471" data-name="Trazado 678471" d="M62.448,99.679c11.769,3.634-30.091-65.312-38.72-85.327S5.478,1.1,5.478,1.1L3.309,2,3.3,2A11.586,11.586,0,0,0,1.786,16.3C15.226,37.789,52.84,96.712,62.448,99.679Z" transform="translate(149.665 99.788) rotate(66)" fill="#25ffff"/>
    <g id="Grupo_936743" data-name="Grupo 936743" transform="translate(135.661 93.511)">
      <path id="Trazado_678233" data-name="Trazado 678233" d="M2135.923,837.112a12.54,12.54,0,1,1-7.318-16.154A12.54,12.54,0,0,1,2135.923,837.112Z" transform="translate(-2111.644 -820.15)" fill="url(#linear-gradient)"/>
      <g id="Grupo_936742" data-name="Grupo 936742" transform="translate(3.612 3.642)">
        <path id="Trazado_678234" data-name="Trazado 678234" d="M2126.878,844.414a8.962,8.962,0,1,1,8.4-5.8h0A8.975,8.975,0,0,1,2126.878,844.414Zm.006-16.646a7.683,7.683,0,1,0,7.193,10.392h0a7.693,7.693,0,0,0-7.193-10.392Z" transform="translate(-2117.928 -826.487)" fill="#7d97f4"/>
      </g>
    </g>
  </g>
</svg>
