<svg xmlns="http://www.w3.org/2000/svg" width="215.736" height="121.457" viewBox="0 0 215.736 121.457">
  <g id="Grupo_936370" data-name="Grupo 936370" transform="translate(-253.187 -192.001)">
    <path id="Trazado_677912" data-name="Trazado 677912" d="M468.923,310.057c0,1.878-48.294,3.4-107.866,3.4s-107.87-1.523-107.87-3.4,48.295-3.4,107.87-3.4S468.923,308.179,468.923,310.057Z" fill="#90cc3a"/>
    <g id="Grupo_936201" data-name="Grupo 936201">
      <g id="Grupo_936200" data-name="Grupo 936200">
        <g id="Grupo_936199" data-name="Grupo 936199">
          <g id="Grupo_936198" data-name="Grupo 936198">
            <g id="Grupo_936197" data-name="Grupo 936197">
              <path id="Trazado_677913" data-name="Trazado 677913" d="M266.565,286.834l.353-.33L268.327,288a1.117,1.117,0,0,0,1.57.051l1.2-1.122a1.594,1.594,0,0,1,2.259.081l.927,1a1.118,1.118,0,0,0,1.588.046l1.051-1.011a1.6,1.6,0,0,1,2.328.124l.574.682a1.117,1.117,0,0,0,1.692.017l1.275-1.454.361.319-1.272,1.455a1.6,1.6,0,0,1-2.426-.028l-.57-.681a1.115,1.115,0,0,0-1.627-.086l-1.054,1.01a1.593,1.593,0,0,1-2.273-.064l-.926-1a1.113,1.113,0,0,0-.778-.355,1.1,1.1,0,0,0-.8.3l-1.2,1.121a1.6,1.6,0,0,1-2.251-.072Z" fill="#ffb502"/>
            </g>
          </g>
        </g>
      </g>
    </g>
    <g id="Grupo_936232" data-name="Grupo 936232">
      <g id="Grupo_936216" data-name="Grupo 936216">
        <g id="Grupo_936203" data-name="Grupo 936203">
          <g id="Grupo_936202" data-name="Grupo 936202">
            <rect id="Rectángulo_329502" data-name="Rectángulo 329502" width="0.71" height="1.688" transform="translate(340.103 277.731) rotate(-0.073)" fill="#848fb7"/>
          </g>
        </g>
        <g id="Grupo_936205" data-name="Grupo 936205">
          <g id="Grupo_936204" data-name="Grupo 936204">
            <path id="Trazado_677914" data-name="Trazado 677914" d="M340.81,275.217H340.1l0,1.689h.71Z" fill="#848fb7"/>
          </g>
        </g>
        <g id="Grupo_936207" data-name="Grupo 936207">
          <g id="Grupo_936206" data-name="Grupo 936206">
            <rect id="Rectángulo_329503" data-name="Rectángulo 329503" width="0.71" height="1.689" transform="translate(340.097 272.703) rotate(-0.081)" fill="#848fb7"/>
          </g>
        </g>
        <g id="Grupo_936209" data-name="Grupo 936209">
          <g id="Grupo_936208" data-name="Grupo 936208">
            <rect id="Rectángulo_329504" data-name="Rectángulo 329504" width="0.71" height="1.687" transform="translate(340.096 270.189)" fill="#848fb7"/>
          </g>
        </g>
        <g id="Grupo_936211" data-name="Grupo 936211">
          <g id="Grupo_936210" data-name="Grupo 936210">
            <rect id="Rectángulo_329505" data-name="Rectángulo 329505" width="0.711" height="1.689" transform="translate(340.092 267.674) rotate(-0.073)" fill="#848fb7"/>
          </g>
        </g>
        <g id="Grupo_936213" data-name="Grupo 936213">
          <g id="Grupo_936212" data-name="Grupo 936212">
            <rect id="Rectángulo_329506" data-name="Rectángulo 329506" width="0.71" height="1.688" transform="translate(340.089 265.159) rotate(-0.081)" fill="#848fb7"/>
          </g>
        </g>
        <g id="Grupo_936215" data-name="Grupo 936215">
          <g id="Grupo_936214" data-name="Grupo 936214">
            <rect id="Rectángulo_329507" data-name="Rectángulo 329507" width="0.711" height="1.688" transform="translate(340.087 262.646)" fill="#848fb7"/>
          </g>
        </g>
      </g>
      <g id="Grupo_936231" data-name="Grupo 936231">
        <g id="Grupo_936218" data-name="Grupo 936218">
          <g id="Grupo_936217" data-name="Grupo 936217">
            <rect id="Rectángulo_329508" data-name="Rectángulo 329508" width="0.71" height="1.688" transform="translate(340.083 260.13)" fill="#848fb7"/>
          </g>
        </g>
        <g id="Grupo_936220" data-name="Grupo 936220">
          <g id="Grupo_936219" data-name="Grupo 936219">
            <path id="Trazado_677915" data-name="Trazado 677915" d="M340.791,257.616h-.71l0,1.688h.71Z" fill="#848fb7"/>
          </g>
        </g>
        <g id="Grupo_936222" data-name="Grupo 936222">
          <g id="Grupo_936221" data-name="Grupo 936221">
            <rect id="Rectángulo_329509" data-name="Rectángulo 329509" width="0.71" height="1.688" transform="translate(340.077 255.102) rotate(-0.08)" fill="#848fb7"/>
          </g>
        </g>
        <g id="Grupo_936224" data-name="Grupo 936224">
          <g id="Grupo_936223" data-name="Grupo 936223">
            <rect id="Rectángulo_329510" data-name="Rectángulo 329510" width="0.71" height="1.688" transform="matrix(1, -0.003, 0.003, 1, 340.074, 252.588)" fill="#848fb7"/>
          </g>
        </g>
        <g id="Grupo_936226" data-name="Grupo 936226">
          <g id="Grupo_936225" data-name="Grupo 936225">
            <rect id="Rectángulo_329511" data-name="Rectángulo 329511" width="0.71" height="1.688" transform="translate(340.073 250.072)" fill="#848fb7"/>
          </g>
        </g>
        <g id="Grupo_936228" data-name="Grupo 936228">
          <g id="Grupo_936227" data-name="Grupo 936227">
            <rect id="Rectángulo_329512" data-name="Rectángulo 329512" width="0.709" height="1.688" transform="translate(340.07 247.559) rotate(-0.121)" fill="#848fb7"/>
          </g>
        </g>
        <g id="Grupo_936230" data-name="Grupo 936230">
          <g id="Grupo_936229" data-name="Grupo 936229">
            <rect id="Rectángulo_329513" data-name="Rectángulo 329513" width="0.711" height="1.688" transform="translate(340.067 245.044)" fill="#848fb7"/>
          </g>
        </g>
      </g>
    </g>
    <g id="Grupo_936238" data-name="Grupo 936238">
      <g id="Grupo_936234" data-name="Grupo 936234">
        <g id="Grupo_936233" data-name="Grupo 936233">
          <path id="Trazado_677916" data-name="Trazado 677916" d="M440.985,264.53a5.678,5.678,0,1,1-5.427-5.919A5.664,5.664,0,0,1,440.985,264.53Z" fill="#cbe9f4"/>
        </g>
      </g>
      <g id="Grupo_936235" data-name="Grupo 936235">
        <path id="Trazado_677917" data-name="Trazado 677917" d="M455.06,261.13a7.685,7.685,0,0,1-2.379-6.593c.222-1.433,4.255-3.93,4.255-3.93l-6.017-6.54s-2.823,3.828-4.267,3.926a7.209,7.209,0,0,1-6.049-2.816c-.854-1.173.251-5.788.251-5.788l-8.888-.382s.7,4.7-.248,5.787a6.173,6.173,0,0,1-5.557,1.891c-1.423-.284-3.723-4.433-3.723-4.433l-6.809,5.721s3.685,2.987,3.724,4.429a8.172,8.172,0,0,1-3.266,6.557c-1.182.842-5.792-.322-5.792-.322l-.5,8.883s4.7-.647,5.772.315a7.708,7.708,0,0,1,2.383,6.6c-.22,1.431-4.261,3.927-4.261,3.927l6.018,6.539s2.821-3.823,4.268-3.923a7.253,7.253,0,0,1,6.055,2.815c.853,1.176-.245,5.786-.245,5.786l8.882.384s-.7-4.695.242-5.786a6.19,6.19,0,0,1,5.566-1.891c1.417.287,3.72,4.432,3.72,4.432l6.807-5.72s-3.682-2.987-3.727-4.432a8.2,8.2,0,0,1,3.27-6.556c1.181-.836,5.8.328,5.8.328l.491-8.881S456.143,262.092,455.06,261.13ZM434.686,279a14.728,14.728,0,1,1,15.349-14.078A14.726,14.726,0,0,1,434.686,279Z" fill="#cbe9f4"/>
      </g>
      <g id="Grupo_936237" data-name="Grupo 936237">
        <g id="Grupo_936236" data-name="Grupo 936236">
          <path id="Trazado_677918" data-name="Trazado 677918" d="M446.566,264.969a11.254,11.254,0,1,1-10.758-11.733A11.248,11.248,0,0,1,446.566,264.969Z" fill="#cbe9f4"/>
        </g>
      </g>
    </g>
    <g id="Grupo_936291" data-name="Grupo 936291">
      <g id="Grupo_936239" data-name="Grupo 936239">
        <rect id="Rectángulo_329514" data-name="Rectángulo 329514" width="19.661" height="72.393" transform="translate(406.161 236.572)" fill="#64b4d7"/>
      </g>
      <g id="Grupo_936240" data-name="Grupo 936240">
        <rect id="Rectángulo_329515" data-name="Rectángulo 329515" width="34.714" height="72.393" transform="translate(371.447 236.572)" fill="#c1e4fa"/>
      </g>
      <g id="Grupo_936241" data-name="Grupo 936241">
        <rect id="Rectángulo_329516" data-name="Rectángulo 329516" width="9.229" height="15.568" transform="translate(411.376 290.053)" fill="#848fb7"/>
      </g>
      <g id="Grupo_936242" data-name="Grupo 936242">
        <rect id="Rectángulo_329517" data-name="Rectángulo 329517" width="6.95" height="0.676" transform="translate(412.517 291.713)" fill="#464f72"/>
      </g>
      <g id="Grupo_936243" data-name="Grupo 936243">
        <rect id="Rectángulo_329518" data-name="Rectángulo 329518" width="6.95" height="0.676" transform="translate(412.517 292.895)" fill="#464f72"/>
      </g>
      <g id="Grupo_936244" data-name="Grupo 936244">
        <rect id="Rectángulo_329519" data-name="Rectángulo 329519" width="6.95" height="0.678" transform="translate(412.517 294.104)" fill="#464f72"/>
      </g>
      <g id="Grupo_936245" data-name="Grupo 936245">
        <rect id="Rectángulo_329520" data-name="Rectángulo 329520" width="6.95" height="0.678" transform="translate(412.517 295.285)" fill="#464f72"/>
      </g>
      <g id="Grupo_936246" data-name="Grupo 936246">
        <rect id="Rectángulo_329521" data-name="Rectángulo 329521" width="6.95" height="0.676" transform="translate(412.517 296.49)" fill="#464f72"/>
      </g>
      <g id="Grupo_936247" data-name="Grupo 936247">
        <rect id="Rectángulo_329522" data-name="Rectángulo 329522" width="6.95" height="0.676" transform="translate(412.517 297.672)" fill="#464f72"/>
      </g>
      <g id="Grupo_936248" data-name="Grupo 936248">
        <rect id="Rectángulo_329523" data-name="Rectángulo 329523" width="6.95" height="0.676" transform="translate(412.517 298.881)" fill="#464f72"/>
      </g>
      <g id="Grupo_936249" data-name="Grupo 936249">
        <rect id="Rectángulo_329524" data-name="Rectángulo 329524" width="6.95" height="0.678" transform="translate(412.517 300.063)" fill="#464f72"/>
      </g>
      <g id="Grupo_936250" data-name="Grupo 936250">
        <rect id="Rectángulo_329525" data-name="Rectángulo 329525" width="6.95" height="0.678" transform="translate(412.517 301.5)" fill="#464f72"/>
      </g>
      <g id="Grupo_936251" data-name="Grupo 936251">
        <rect id="Rectángulo_329526" data-name="Rectángulo 329526" width="6.95" height="0.676" transform="translate(412.517 302.711)" fill="#464f72"/>
      </g>
      <g id="Grupo_936252" data-name="Grupo 936252">
        <rect id="Rectángulo_329527" data-name="Rectángulo 329527" width="6.95" height="0.678" transform="translate(412.517 303.893)" fill="#464f72"/>
      </g>
      <g id="Grupo_936256" data-name="Grupo 936256">
        <g id="Grupo_936253" data-name="Grupo 936253">
          <path id="Trazado_677919" data-name="Trazado 677919" d="M411.26,256.1h9.464l-4.732-9.465Z" fill="#6d76a1"/>
        </g>
        <g id="Grupo_936254" data-name="Grupo 936254">
          <path id="Trazado_677920" data-name="Trazado 677920" d="M419.808,255.455l-3.816-7.432-3.816,7.432Z" fill="#ffcf03"/>
        </g>
        <g id="Grupo_936255" data-name="Grupo 936255">
          <path id="Trazado_677921" data-name="Trazado 677921" d="M416.768,254.838l.072-3.355-.865,1.168-.234-2.953-.015,3.85.7-.973Z" fill="#6d76a1"/>
        </g>
      </g>
      <g id="Grupo_936257" data-name="Grupo 936257">
        <rect id="Rectángulo_329528" data-name="Rectángulo 329528" width="26.513" height="11.072" transform="translate(375.349 242.559)" fill="#6d76a1"/>
      </g>
      <g id="Grupo_936258" data-name="Grupo 936258">
        <rect id="Rectángulo_329529" data-name="Rectángulo 329529" width="19.209" height="5.537" transform="translate(376.7 243.865)" fill="#464f72"/>
      </g>
      <g id="Grupo_936259" data-name="Grupo 936259">
        <rect id="Rectángulo_329530" data-name="Rectángulo 329530" width="26.513" height="3.008" transform="translate(375.349 256.355)" fill="#6d76a1"/>
      </g>
      <g id="Grupo_936260" data-name="Grupo 936260">
        <rect id="Rectángulo_329531" data-name="Rectángulo 329531" width="1.985" height="11.019" transform="translate(399.876 262.943)" fill="#6d76a1"/>
      </g>
      <g id="Grupo_936261" data-name="Grupo 936261">
        <rect id="Rectángulo_329532" data-name="Rectángulo 329532" width="1.987" height="11.019" transform="translate(396.344 262.943)" fill="#6d76a1"/>
      </g>
      <g id="Grupo_936262" data-name="Grupo 936262">
        <rect id="Rectángulo_329533" data-name="Rectángulo 329533" width="1.985" height="11.019" transform="translate(392.813 262.943)" fill="#6d76a1"/>
      </g>
      <g id="Grupo_936263" data-name="Grupo 936263">
        <rect id="Rectángulo_329534" data-name="Rectángulo 329534" width="1.987" height="11.019" transform="translate(389.28 262.943)" fill="#6d76a1"/>
      </g>
      <g id="Grupo_936264" data-name="Grupo 936264">
        <rect id="Rectángulo_329535" data-name="Rectángulo 329535" width="1.987" height="11.019" transform="translate(386.301 262.943)" fill="#6d76a1"/>
      </g>
      <g id="Grupo_936265" data-name="Grupo 936265">
        <rect id="Rectángulo_329536" data-name="Rectángulo 329536" width="1.987" height="11.019" transform="translate(382.77 262.943)" fill="#6d76a1"/>
      </g>
      <g id="Grupo_936266" data-name="Grupo 936266">
        <rect id="Rectángulo_329537" data-name="Rectángulo 329537" width="1.985" height="11.019" transform="translate(379.239 262.943)" fill="#6d76a1"/>
      </g>
      <g id="Grupo_936267" data-name="Grupo 936267">
        <rect id="Rectángulo_329538" data-name="Rectángulo 329538" width="1.987" height="11.019" transform="translate(375.707 262.943)" fill="#6d76a1"/>
      </g>
      <g id="Grupo_936268" data-name="Grupo 936268">
        <rect id="Rectángulo_329539" data-name="Rectángulo 329539" width="0.25" height="22.014" transform="translate(376.575 272.768)" fill="#6d76a1"/>
      </g>
      <g id="Grupo_936269" data-name="Grupo 936269">
        <rect id="Rectángulo_329540" data-name="Rectángulo 329540" width="0.25" height="22.014" transform="translate(380.106 272.768)" fill="#6d76a1"/>
      </g>
      <g id="Grupo_936270" data-name="Grupo 936270">
        <rect id="Rectángulo_329541" data-name="Rectángulo 329541" width="0.25" height="22.014" transform="translate(383.638 272.768)" fill="#6d76a1"/>
      </g>
      <g id="Grupo_936271" data-name="Grupo 936271">
        <rect id="Rectángulo_329542" data-name="Rectángulo 329542" width="0.25" height="22.014" transform="translate(387.17 272.768)" fill="#6d76a1"/>
      </g>
      <g id="Grupo_936272" data-name="Grupo 936272">
        <rect id="Rectángulo_329543" data-name="Rectángulo 329543" width="0.25" height="22.014" transform="translate(390.149 272.768)" fill="#6d76a1"/>
      </g>
      <g id="Grupo_936273" data-name="Grupo 936273">
        <rect id="Rectángulo_329544" data-name="Rectángulo 329544" width="0.25" height="22.014" transform="translate(393.681 272.768)" fill="#6d76a1"/>
      </g>
      <g id="Grupo_936274" data-name="Grupo 936274">
        <rect id="Rectángulo_329545" data-name="Rectángulo 329545" width="0.25" height="22.014" transform="translate(397.212 272.768)" fill="#6d76a1"/>
      </g>
      <g id="Grupo_936275" data-name="Grupo 936275">
        <rect id="Rectángulo_329546" data-name="Rectángulo 329546" width="0.25" height="22.014" transform="translate(400.743 272.768)" fill="#6d76a1"/>
      </g>
      <g id="Grupo_936276" data-name="Grupo 936276">
        <rect id="Rectángulo_329547" data-name="Rectángulo 329547" width="26.513" height="1.334" transform="translate(375.349 294.543)" fill="#6d76a1"/>
      </g>
      <g id="Grupo_936277" data-name="Grupo 936277">
        <path id="Trazado_677922" data-name="Trazado 677922" d="M400.956,264.272l-.015-1.93a.9.9,0,0,0-.257-.627.738.738,0,0,0-.519-.219h-.006l-3.307.026a1.2,1.2,0,0,1-.862-.375,1.308,1.308,0,0,1-.354-.895l-.018-2.4.5,0,.018,2.394a.813.813,0,0,0,.217.555.676.676,0,0,0,.491.219h.005l3.306-.026h.011a1.24,1.24,0,0,1,.869.361,1.4,1.4,0,0,1,.406.981l.015,1.93Z" fill="#6d76a1"/>
      </g>
      <g id="Grupo_936278" data-name="Grupo 936278">
        <path id="Trazado_677923" data-name="Trazado 677923" d="M393.826,264.27l-.014-1.932a.887.887,0,0,0-.238-.607.733.733,0,0,0-.538-.239h-.007l-3.3.026h-.011a1.168,1.168,0,0,1-.853-.375,1.312,1.312,0,0,1-.354-.893l-.017-2.4.5,0,.017,2.4a.808.808,0,0,0,.218.553.666.666,0,0,0,.5.219l3.3-.026h.011a1.235,1.235,0,0,1,.9.395,1.379,1.379,0,0,1,.375.947l.014,1.932Z" fill="#6d76a1"/>
      </g>
      <g id="Grupo_936279" data-name="Grupo 936279">
        <path id="Trazado_677924" data-name="Trazado 677924" d="M387.13,264.268l-.014-1.932a.787.787,0,0,0-.694-.846h0l-3.031.024h-.008a1.051,1.051,0,0,1-.741-.315,1.358,1.358,0,0,1-.389-.955l-.019-2.394.5,0,.019,2.394a.862.862,0,0,0,.239.6.555.555,0,0,0,.391.17h0l3.031-.024h.008a1.282,1.282,0,0,1,1.194,1.342l.014,1.932Z" fill="#6d76a1"/>
      </g>
      <g id="Grupo_936280" data-name="Grupo 936280">
        <path id="Trazado_677925" data-name="Trazado 677925" d="M380.21,264.27l-.014-1.93a1.078,1.078,0,0,0-.194-.629.5.5,0,0,0-.374-.217h0l-2.625.018h-.008a.893.893,0,0,1-.623-.27,1.412,1.412,0,0,1-.388-1l-.019-2.394.5,0,.019,2.394a.927.927,0,0,0,.24.649.4.4,0,0,0,.272.125h0l2.625-.018h.008a.976.976,0,0,1,.772.416,1.566,1.566,0,0,1,.3.926l.014,1.93Z" fill="#6d76a1"/>
      </g>
      <g id="Grupo_936281" data-name="Grupo 936281">
        <rect id="Rectángulo_329548" data-name="Rectángulo 329548" width="26.513" height="4.17" transform="translate(375.349 298.008)" fill="#6d76a1"/>
      </g>
      <g id="Grupo_936282" data-name="Grupo 936282">
        <rect id="Rectángulo_329549" data-name="Rectángulo 329549" width="1.985" height="2.867" transform="translate(399.876 278.391)" fill="#6d76a1"/>
      </g>
      <g id="Grupo_936283" data-name="Grupo 936283">
        <rect id="Rectángulo_329550" data-name="Rectángulo 329550" width="1.987" height="2.867" transform="translate(396.344 286.512)" fill="#6d76a1"/>
      </g>
      <g id="Grupo_936284" data-name="Grupo 936284">
        <rect id="Rectángulo_329551" data-name="Rectángulo 329551" width="1.985" height="2.865" transform="translate(392.813 279.824)" fill="#6d76a1"/>
      </g>
      <g id="Grupo_936285" data-name="Grupo 936285">
        <rect id="Rectángulo_329552" data-name="Rectángulo 329552" width="1.986" height="2.867" transform="translate(389.281 290.617)" fill="#6d76a1"/>
      </g>
      <g id="Grupo_936286" data-name="Grupo 936286">
        <rect id="Rectángulo_329553" data-name="Rectángulo 329553" width="1.987" height="2.867" transform="translate(386.301 276.957)" fill="#6d76a1"/>
      </g>
      <g id="Grupo_936287" data-name="Grupo 936287">
        <rect id="Rectángulo_329554" data-name="Rectángulo 329554" width="1.987" height="2.867" transform="translate(379.467 278.391)" fill="#6d76a1"/>
      </g>
      <g id="Grupo_936288" data-name="Grupo 936288">
        <rect id="Rectángulo_329555" data-name="Rectángulo 329555" width="1.987" height="2.867" transform="translate(375.707 289.184)" fill="#6d76a1"/>
      </g>
      <g id="Grupo_936289" data-name="Grupo 936289">
        <rect id="Rectángulo_329556" data-name="Rectángulo 329556" width="1.272" height="17.498" transform="translate(405.205 243.557)" fill="#c1e4fa"/>
      </g>
      <g id="Grupo_936290" data-name="Grupo 936290">
        <rect id="Rectángulo_329557" data-name="Rectángulo 329557" width="1.272" height="17.5" transform="translate(405.205 283.684)" fill="#c1e4fa"/>
      </g>
    </g>
    <g id="Grupo_936294" data-name="Grupo 936294">
      <g id="Grupo_936292" data-name="Grupo 936292">
        <path id="Trazado_677926" data-name="Trazado 677926" d="M361.732,260.752a2.715,2.715,0,0,1,3.189-.605c1.893,1.017,4.315,4.671,7.279,4.576s3.91-1.875,4.7-2.977.573-1.916,1.1-2.508,1.2.061.374,2.137c-.4.994-1.769,6.131-5.282,6.9C368.486,269.289,359.7,263.418,361.732,260.752Z" fill="#fbc6b4"/>
      </g>
      <g id="Grupo_936293" data-name="Grupo 936293">
        <path id="Trazado_677927" data-name="Trazado 677927" d="M362.193,259.732s-1.77,1.553.467,4.252a18.676,18.676,0,0,0,3.586,3.569,9.046,9.046,0,0,0,3.85-4.037S364.372,257.188,362.193,259.732Z" fill="#eda503"/>
      </g>
    </g>
    <g id="Grupo_936295" data-name="Grupo 936295">
      <path id="Trazado_677928" data-name="Trazado 677928" d="M355.021,265.133a17.432,17.432,0,0,1,0,10.117c1.371.441.554,1.176.517,1.268-1.937,4.021,10.107,1.638,12.224-1.618.728-1.119.032-2.541.162-4.689.047-.484.059-.973.064-1.453a26.911,26.911,0,0,0-.4-5.815c-.946-4.437-5.119-4.654-7.659-4.3a10.418,10.418,0,0,0-3.813,1.033l-.006.01C354.766,260.5,354.045,261.522,355.021,265.133Z" fill="#ffb502"/>
    </g>
    <g id="Grupo_936296" data-name="Grupo 936296">
      <path id="Trazado_677929" data-name="Trazado 677929" d="M358.006,262.752c.52,2.2,2.382,8.93-2.985,12.295,0,0,8.886,6.506,13.97.877,0,0-1.022-9.6-2.443-13.416-.407-1.1-1.491-4.461-3.442-3.975,0,0,3.429,5.4,1.865,6.826s-3.041.229-3.732-.845a30.982,30.982,0,0,1-2.288-5.727l-2.074.528A22.334,22.334,0,0,1,358.006,262.752Z" fill="#1c2745"/>
    </g>
    <g id="Grupo_936300" data-name="Grupo 936300">
      <g id="Grupo_936297" data-name="Grupo 936297">
        <path id="Trazado_677930" data-name="Trazado 677930" d="M359.717,255.428s1.138,1.789-.073,2.98c-1.245,1.221,4.477,3.379,4.2,2.28-.355-1.418-1.2-2.176-.71-3.92Z" fill="#f7b2a0"/>
      </g>
      <g id="Grupo_936298" data-name="Grupo 936298">
        <path id="Trazado_677931" data-name="Trazado 677931" d="M362.289,251.416c1.376,1,3.343,5.9,2.2,7.188-.5.558-2.88.3-4.624-1.741a4.286,4.286,0,0,1-.977-4.3C359.212,251.723,360.692,250.258,362.289,251.416Z" fill="#fbc6b4"/>
      </g>
      <g id="Grupo_936299" data-name="Grupo 936299">
        <path id="Trazado_677932" data-name="Trazado 677932" d="M363.616,251.869c.352.6.293.758-1.587,1.3s-2.224.453-1.97.883c.746,1.271-.655,1.183.253,2.691s-.829.748-1.7-.47a3.656,3.656,0,0,1-.467-3.541C358.926,250.264,362.313,249.66,363.616,251.869Z" fill="#1d1b3a"/>
      </g>
    </g>
    <g id="Grupo_936301" data-name="Grupo 936301">
      <path id="Trazado_677933" data-name="Trazado 677933" d="M359.806,255.166s5.818-1.644,5.547-3.457c-.167-1.119-3.543-.68-3.543-.68Z" fill="#eda503"/>
    </g>
    <g id="Grupo_936302" data-name="Grupo 936302">
      <path id="Trazado_677934" data-name="Trazado 677934" d="M363.616,251.869c-.465,1.75-1.838,2.713-5.4,3.852,0,0-1.93-3.459.571-5.291C360.992,248.818,363.913,250.748,363.616,251.869Z" fill="#ffb502"/>
    </g>
    <g id="Grupo_936307" data-name="Grupo 936307">
      <g id="Grupo_936303" data-name="Grupo 936303">
        <path id="Trazado_677935" data-name="Trazado 677935" d="M351.909,293.754c-1.206,4.719-2.62,14.8-.3,14.853s3.61-.65,2.275-1.023-1.39-.521-1.349-.9c.574-4.868,8.185-12.457,8.831-18.243.218-1.974.367-3.781.47-5.367.866,4.237.229,8.735.3,10.221.244,5.289,1.375,15.287,3.91,15.308,2.7.018,4.026-.73,2.3-1.085-1.493-.317-1.43-.385-1.4-.754.364-5.342,2.953-15.215,3.449-21.559C370.97,277.887,352.959,289.627,351.909,293.754Z" fill="#fbc6b4"/>
      </g>
      <g id="Grupo_936304" data-name="Grupo 936304">
        <path id="Trazado_677936" data-name="Trazado 677936" d="M364.626,307.4s2.014.8,3.257,0c0,0,2.27.305.845.858S364.541,309.273,364.626,307.4Z" fill="#ffb502"/>
      </g>
      <g id="Grupo_936305" data-name="Grupo 936305">
        <path id="Trazado_677937" data-name="Trazado 677937" d="M350.623,307.584s2.016.795,3.258,0c0,0,2.271.311.839.859S350.539,309.455,350.623,307.584Z" fill="#ffb502"/>
      </g>
      <g id="Grupo_936306" data-name="Grupo 936306">
        <path id="Trazado_677938" data-name="Trazado 677938" d="M368.6,272.768c-4.616,3.08-11.07,2.765-13.583,2.279-.679,5.49-4.8,26.092-5.271,28.92a11.031,11.031,0,0,0,3.286.812c9.784-12.617,8.661-18.029,8.765-19.615.368,1.832-.84,10.811,1.272,19.615a4.467,4.467,0,0,0,4.389,0c.077-.562,2.948-10.675,2.886-18.591C370.3,280.791,369.4,277.088,368.6,272.768Z" fill="#1c2745"/>
      </g>
    </g>
    <g id="Grupo_936309" data-name="Grupo 936309">
      <g id="Grupo_936308" data-name="Grupo 936308">
        <path id="Trazado_677939" data-name="Trazado 677939" d="M355.344,279.7a4.557,4.557,0,0,0,3.125-3.775l-.381-.027a4.1,4.1,0,0,1-2.861,3.441Z" fill="#fff"/>
      </g>
    </g>
    <g id="Grupo_936311" data-name="Grupo 936311">
      <g id="Grupo_936310" data-name="Grupo 936310">
        <path id="Trazado_677940" data-name="Trazado 677940" d="M368.776,278.99l.117-.363a4.153,4.153,0,0,1-2.862-3.441l-.382.029A4.557,4.557,0,0,0,368.776,278.99Z" fill="#fff"/>
      </g>
    </g>
    <g id="Grupo_936312" data-name="Grupo 936312">
      <rect id="Rectángulo_329558" data-name="Rectángulo 329558" width="20.127" height="11.625" transform="translate(318.925 298.164)" fill="#c1e4fa"/>
    </g>
    <g id="Grupo_936313" data-name="Grupo 936313">
      <rect id="Rectángulo_329559" data-name="Rectángulo 329559" width="7.809" height="11.625" transform="translate(339.052 298.164)" fill="#4ca1bf"/>
    </g>
    <g id="Grupo_936314" data-name="Grupo 936314">
      <rect id="Rectángulo_329560" data-name="Rectángulo 329560" width="2.891" height="5.668" transform="translate(320.14 294.52)" fill="#c1e4fa"/>
    </g>
    <g id="Grupo_936315" data-name="Grupo 936315">
      <rect id="Rectángulo_329561" data-name="Rectángulo 329561" width="21.516" height="0.693" transform="translate(321.585 295.33)" fill="#464f72"/>
    </g>
    <g id="Grupo_936316" data-name="Grupo 936316">
      <rect id="Rectángulo_329562" data-name="Rectángulo 329562" width="2.891" height="5.668" transform="translate(341.655 294.52)" fill="#4ca1bf"/>
    </g>
    <g id="Grupo_936322" data-name="Grupo 936322">
      <g id="Grupo_936317" data-name="Grupo 936317">
        <rect id="Rectángulo_329563" data-name="Rectángulo 329563" width="16.487" height="9.523" transform="translate(347.576 276.428)" fill="#c1e4fa"/>
      </g>
      <g id="Grupo_936318" data-name="Grupo 936318">
        <rect id="Rectángulo_329564" data-name="Rectángulo 329564" width="6.396" height="9.523" transform="translate(364.063 276.428)" fill="#4ca1bf"/>
      </g>
      <g id="Grupo_936319" data-name="Grupo 936319">
        <rect id="Rectángulo_329565" data-name="Rectángulo 329565" width="2.368" height="4.642" transform="translate(348.571 273.443)" fill="#c1e4fa"/>
      </g>
      <g id="Grupo_936320" data-name="Grupo 936320">
        <rect id="Rectángulo_329566" data-name="Rectángulo 329566" width="17.624" height="0.568" transform="translate(349.756 274.107)" fill="#464f72"/>
      </g>
      <g id="Grupo_936321" data-name="Grupo 936321">
        <rect id="Rectángulo_329567" data-name="Rectángulo 329567" width="2.368" height="4.642" transform="translate(366.195 273.443)" fill="#4ca1bf"/>
      </g>
    </g>
    <g id="Grupo_936325" data-name="Grupo 936325">
      <g id="Grupo_936323" data-name="Grupo 936323">
        <path id="Trazado_677941" data-name="Trazado 677941" d="M356.909,260.113a2.2,2.2,0,0,1,1.225,2.52c-.325,2.027-2.865,5.351-1.85,7.992s2.909,2.938,4.15,3.3,1.9-.078,2.6.209.32,1.109-1.81,1.008c-1.019-.049-6.079.32-7.872-2.608C351.006,268.7,353.873,259.111,356.909,260.113Z" fill="#fbc6b4"/>
      </g>
      <g id="Grupo_936324" data-name="Grupo 936324">
        <path id="Trazado_677942" data-name="Trazado 677942" d="M356.877,259.315s-1.4-.262-3.14,2.6a17.9,17.9,0,0,0-2.093,4.342,8.634,8.634,0,0,0,4.84,2.213S360.3,260.99,356.877,259.315Z" fill="#eda503"/>
      </g>
    </g>
    <g id="Grupo_936332" data-name="Grupo 936332">
      <g id="Grupo_936328" data-name="Grupo 936328">
        <g id="Grupo_936327" data-name="Grupo 936327">
          <g id="Grupo_936326" data-name="Grupo 936326">
            <rect id="Rectángulo_329568" data-name="Rectángulo 329568" width="0.941" height="4.453" transform="matrix(0.701, -0.713, 0.713, 0.701, 360.09, 241.445)" fill="#ffb502"/>
          </g>
        </g>
      </g>
      <g id="Grupo_936331" data-name="Grupo 936331">
        <g id="Grupo_936330" data-name="Grupo 936330">
          <g id="Grupo_936329" data-name="Grupo 936329">
            <rect id="Rectángulo_329569" data-name="Rectángulo 329569" width="4.404" height="0.941" transform="translate(360.12 243.899) rotate(-45.086)" fill="#ffb502"/>
          </g>
        </g>
      </g>
    </g>
    <g id="Grupo_936354" data-name="Grupo 936354">
      <g id="Grupo_936335" data-name="Grupo 936335">
        <g id="Grupo_936334" data-name="Grupo 936334">
          <g id="Grupo_936333" data-name="Grupo 936333">
            <path id="Trazado_677943" data-name="Trazado 677943" d="M398.962,229.324l.409-.453s-.2-.2-.406-.4c-.189-.219-.379-.436-.379-.436l-.474.383s.2.234.407.469C398.741,229.106,398.962,229.324,398.962,229.324Z" fill="#fbe366"/>
          </g>
        </g>
      </g>
      <g id="Grupo_936338" data-name="Grupo 936338">
        <g id="Grupo_936337" data-name="Grupo 936337">
          <g id="Grupo_936336" data-name="Grupo 936336">
            <path id="Trazado_677944" data-name="Trazado 677944" d="M400.645,230.25l.129-.6a2.558,2.558,0,0,1-.5-.169,2.174,2.174,0,0,1-.328-.18l-.144-.094-.347.5.169.107a2.225,2.225,0,0,0,.4.215A3.137,3.137,0,0,0,400.645,230.25Z" fill="#fbe366"/>
          </g>
        </g>
      </g>
      <g id="Grupo_936341" data-name="Grupo 936341">
        <g id="Grupo_936340" data-name="Grupo 936340">
          <g id="Grupo_936339" data-name="Grupo 936339">
            <path id="Trazado_677945" data-name="Trazado 677945" d="M402.569,230l-.243-.56a3.284,3.284,0,0,1-.518.183,2.326,2.326,0,0,1-.526.078l.02.612a3.011,3.011,0,0,0,.657-.1A4.111,4.111,0,0,0,402.569,230Z" fill="#fbe366"/>
          </g>
        </g>
      </g>
      <g id="Grupo_936344" data-name="Grupo 936344">
        <g id="Grupo_936343" data-name="Grupo 936343">
          <g id="Grupo_936342" data-name="Grupo 936342">
            <path id="Trazado_677946" data-name="Trazado 677946" d="M404.152,229.086l-.328-.514-.5.319-.5.3.3.533.528-.315Z" fill="#fbe366"/>
          </g>
        </g>
      </g>
      <g id="Grupo_936347" data-name="Grupo 936347">
        <g id="Grupo_936346" data-name="Grupo 936346">
          <g id="Grupo_936345" data-name="Grupo 936345">
            <path id="Trazado_677947" data-name="Trazado 677947" d="M405.652,228.3l-.183-.582a5.237,5.237,0,0,0-.6.24c-.282.139-.545.3-.545.3l.311.527s.25-.148.5-.275A4.643,4.643,0,0,1,405.652,228.3Z" fill="#fbe366"/>
          </g>
        </g>
      </g>
      <g id="Grupo_936350" data-name="Grupo 936350">
        <g id="Grupo_936349" data-name="Grupo 936349">
          <g id="Grupo_936348" data-name="Grupo 936348">
            <path id="Trazado_677948" data-name="Trazado 677948" d="M407.163,228.377l.252-.555a2.582,2.582,0,0,0-.64-.2,2.441,2.441,0,0,0-.673-.029l.057.609a1.707,1.707,0,0,1,.51.022A2.144,2.144,0,0,1,407.163,228.377Z" fill="#fbe366"/>
          </g>
        </g>
      </g>
      <g id="Grupo_936353" data-name="Grupo 936353">
        <g id="Grupo_936352" data-name="Grupo 936352">
          <g id="Grupo_936351" data-name="Grupo 936351">
            <path id="Trazado_677949" data-name="Trazado 677949" d="M408.437,229.4l.459-.4s-.212-.226-.434-.451c-.121-.1-.241-.207-.332-.283a1.922,1.922,0,0,0-.164-.117l-.351.5a1.5,1.5,0,0,1,.139.1c.08.067.185.158.291.248C408.243,229.191,408.437,229.4,408.437,229.4Z" fill="#fbe366"/>
          </g>
        </g>
      </g>
    </g>
    <g id="Grupo_936357" data-name="Grupo 936357">
      <g id="Grupo_936356" data-name="Grupo 936356">
        <g id="Grupo_936355" data-name="Grupo 936355">
          <rect id="Rectángulo_329570" data-name="Rectángulo 329570" width="8.657" height="0.668" transform="translate(328.015 289.143)" fill="#27355c"/>
        </g>
      </g>
    </g>
    <g id="Grupo_936360" data-name="Grupo 936360">
      <g id="Grupo_936359" data-name="Grupo 936359">
        <g id="Grupo_936358" data-name="Grupo 936358">
          <rect id="Rectángulo_329571" data-name="Rectángulo 329571" width="4.773" height="0.67" transform="translate(331.395 286.955)" fill="#27355c"/>
        </g>
      </g>
    </g>
    <path id="Trazado_677950" data-name="Trazado 677950" d="M292.042,310.147h16.151L304.93,246.73h-4.811Z" fill="#ae6a44"/>
    <path id="Trazado_677951" data-name="Trazado 677951" d="M292.042,310.147h9.3l-1.225-63.416h0Z" fill="#9b5a3a"/>
    <path id="Trazado_677952" data-name="Trazado 677952" d="M302.292,221.182a7.63,7.63,0,1,0,7.607-7.044A7.341,7.341,0,0,0,302.292,221.182Z" fill="#90cc3a"/>
    <path id="Trazado_677953" data-name="Trazado 677953" d="M292.571,209.4c0,6.509,5.7,11.787,12.731,11.787S318.03,215.9,318.03,209.4s-5.7-11.788-12.728-11.788S292.571,202.885,292.571,209.4Z" fill="#90cc3a"/>
    <ellipse id="Elipse_5316" data-name="Elipse 5316" cx="9.393" cy="8.697" rx="9.393" ry="8.697" transform="translate(284.204 192.001)" fill="#90cc3a"/>
    <path id="Trazado_677954" data-name="Trazado 677954" d="M273.26,221.182a4.71,4.71,0,1,0,4.7-4.348A4.532,4.532,0,0,0,273.26,221.182Z" fill="#90cc3a"/>
    <path id="Trazado_677955" data-name="Trazado 677955" d="M275.277,213.922c0,6.51,5.7,11.788,12.732,11.788s12.729-5.278,12.729-11.788-5.7-11.787-12.729-11.787S275.277,207.413,275.277,213.922Z" fill="#90cc3a"/>
    <path id="Trazado_677956" data-name="Trazado 677956" d="M282.652,227.722c0,6.51,5.7,11.788,12.73,11.788s12.731-5.278,12.731-11.788-5.7-11.787-12.731-11.787S282.652,221.213,282.652,227.722Z" fill="#90cc3a"/>
    <path id="Trazado_677957" data-name="Trazado 677957" d="M299.419,234.7c0,7.743,6.779,14.019,15.141,14.019S329.7,242.44,329.7,234.7s-6.777-14.019-15.139-14.019S299.419,226.955,299.419,234.7Z" fill="#90cc3a"/>
    <path id="Trazado_677958" data-name="Trazado 677958" d="M302.366,259.485c0,7.743,6.778,14.019,15.14,14.019s15.139-6.276,15.139-14.019-6.778-14.02-15.139-14.02S302.366,251.742,302.366,259.485Z" fill="#90cc3a"/>
    <path id="Trazado_677959" data-name="Trazado 677959" d="M280.242,263.007c0,7.742,6.778,14.019,15.14,14.019s15.141-6.277,15.141-14.019-6.779-14.02-15.141-14.02S280.242,255.264,280.242,263.007Z" fill="#90cc3a"/>
    <path id="Trazado_677960" data-name="Trazado 677960" d="M274.309,227.722c0,5.061,4.429,9.163,9.9,9.163s9.9-4.1,9.9-9.163-4.431-9.164-9.9-9.164S274.309,222.662,274.309,227.722Z" fill="#90cc3a"/>
    <path id="Trazado_677961" data-name="Trazado 677961" d="M288.009,245.287c0,8.653,7.576,15.668,16.921,15.668s16.922-7.015,16.922-15.668-7.576-15.668-16.922-15.668S288.009,236.634,288.009,245.287Z" fill="#90cc3a"/>
    <path id="Trazado_677962" data-name="Trazado 677962" d="M318.03,245.2c0,4.453,3.9,8.065,8.712,8.065s8.711-3.612,8.711-8.065-3.9-8.067-8.711-8.067S318.03,240.744,318.03,245.2Z" fill="#90cc3a"/>
    <path id="Trazado_677963" data-name="Trazado 677963" d="M301.343,228.081a5.934,5.934,0,0,1,6.149-5.693,6.121,6.121,0,0,1,5.854,3.952,9.88,9.88,0,0,1,1.214-.076c5.033,0,9.114,3.778,9.114,8.439a8.1,8.1,0,0,1-2.574,5.872,3.994,3.994,0,0,1,.948,2.566,4.555,4.555,0,0,1-9.083,0c0-.045.005-.087.006-.13a8.653,8.653,0,0,1-7.525-8.308,7.847,7.847,0,0,1,.1-1.224A5.75,5.75,0,0,1,301.343,228.081Z" opacity="0.2" style="mix-blend-mode: overlay;isolation: isolate"/>
    <path id="Trazado_677964" data-name="Trazado 677964" d="M297.027,235.314a5.936,5.936,0,0,1,6.15-5.695,6.121,6.121,0,0,1,5.854,3.953,9.913,9.913,0,0,1,1.214-.077c5.032,0,9.113,3.778,9.113,8.439a8.1,8.1,0,0,1-2.572,5.873,3.99,3.99,0,0,1,.948,2.564,4.556,4.556,0,0,1-9.085,0c0-.042.005-.086.007-.129a8.653,8.653,0,0,1-7.524-8.308,7.982,7.982,0,0,1,.1-1.224A5.752,5.752,0,0,1,297.027,235.314Z" fill="#90cc3a"/>
    <path id="Trazado_677965" data-name="Trazado 677965" d="M298.442,203.365a3.973,3.973,0,0,0-4.117-3.813,4.1,4.1,0,0,0-3.92,2.647,6.592,6.592,0,0,0-.812-.051,5.889,5.889,0,0,0-6.1,5.65,5.425,5.425,0,0,0,1.723,3.933,2.668,2.668,0,0,0-.635,1.717,3.051,3.051,0,0,0,6.083,0c0-.03,0-.058-.005-.088a5.792,5.792,0,0,0,5.038-5.562,5.413,5.413,0,0,0-.063-.82A3.849,3.849,0,0,0,298.442,203.365Z" opacity="0.2" style="mix-blend-mode: overlay;isolation: isolate"/>
    <path id="Trazado_677966" data-name="Trazado 677966" d="M301.332,208.207a3.975,3.975,0,0,0-4.118-3.813,4.1,4.1,0,0,0-3.92,2.646,6.8,6.8,0,0,0-.813-.051,5.889,5.889,0,0,0-6.1,5.65,5.418,5.418,0,0,0,1.723,3.932,2.674,2.674,0,0,0-.635,1.719,3.051,3.051,0,0,0,6.084,0c0-.031,0-.059-.006-.088a5.793,5.793,0,0,0,5.038-5.563,5.273,5.273,0,0,0-.065-.819A3.852,3.852,0,0,0,301.332,208.207Z" fill="#90cc3a"/>
    <path id="Trazado_677967" data-name="Trazado 677967" d="M266.409,244.663c0,7.165,6.275,12.975,14.015,12.975s14.012-5.81,14.012-12.975-6.273-12.976-14.012-12.976S266.409,237.5,266.409,244.663Z" fill="#90cc3a"/>
    <ellipse id="Elipse_5317" data-name="Elipse 5317" cx="14.357" cy="13.294" rx="14.357" ry="13.294" transform="translate(268.295 246.73)" fill="#90cc3a"/>
    <path id="Trazado_677968" data-name="Trazado 677968" d="M295.951,243.43a5.233,5.233,0,0,0-5.422-5.02,5.394,5.394,0,0,0-5.161,3.485,8.782,8.782,0,0,0-1.07-.068c-4.439,0-8.036,3.331-8.036,7.44a7.139,7.139,0,0,0,2.268,5.178,3.523,3.523,0,0,0-.837,2.263,4.018,4.018,0,0,0,8.011,0c0-.04-.005-.076-.007-.115a7.629,7.629,0,0,0,6.636-7.326,6.989,6.989,0,0,0-.085-1.079A5.07,5.07,0,0,0,295.951,243.43Z" opacity="0.2" style="mix-blend-mode: overlay;isolation: isolate"/>
    <path id="Trazado_677969" data-name="Trazado 677969" d="M299.755,249.8a5.232,5.232,0,0,0-5.421-5.019,5.4,5.4,0,0,0-5.162,3.485,8.781,8.781,0,0,0-1.07-.068c-4.437,0-8.037,3.331-8.037,7.44a7.143,7.143,0,0,0,2.27,5.178,3.515,3.515,0,0,0-.837,2.262,4.017,4.017,0,0,0,8.011,0c0-.039-.005-.076-.007-.115a7.627,7.627,0,0,0,6.635-7.325,7.111,7.111,0,0,0-.084-1.079A5.071,5.071,0,0,0,299.755,249.8Z" fill="#90cc3a"/>
    <g id="Grupo_936361" data-name="Grupo 936361">
      <path id="Trazado_677970" data-name="Trazado 677970" d="M278.615,300.1s6.074,2.157,4.92,9.871h-1.822A10,10,0,0,0,278.615,300.1Z" fill="#90cc3a"/>
      <path id="Trazado_677971" data-name="Trazado 677971" d="M287.6,297.811s-6.075,2.636-4.92,12.064H284.5A14.193,14.193,0,0,1,287.6,297.811Z" fill="#8bbf30"/>
      <path id="Trazado_677972" data-name="Trazado 677972" d="M288.139,300.1s-6.075,2.157-4.92,9.871h1.822A10,10,0,0,1,288.139,300.1Z" fill="#90cc3a"/>
      <path id="Trazado_677973" data-name="Trazado 677973" d="M278.586,303.264s3.629.948,3.869,6.431l-1.014.167A8.361,8.361,0,0,0,278.586,303.264Z" fill="#8bbf30"/>
      <path id="Trazado_677974" data-name="Trazado 677974" d="M288.394,303.264s-3.628.948-3.871,6.431l1.014.167A8.367,8.367,0,0,1,288.394,303.264Z" fill="#8bbf30"/>
    </g>
    <g id="Grupo_936362" data-name="Grupo 936362">
      <path id="Trazado_677975" data-name="Trazado 677975" d="M305.023,300.476s6.075,2.157,4.92,9.871h-1.822A10,10,0,0,0,305.023,300.476Z" fill="#90cc3a"/>
      <path id="Trazado_677976" data-name="Trazado 677976" d="M314.008,298.185s-6.074,2.636-4.92,12.064h1.822A14.193,14.193,0,0,1,314.008,298.185Z" fill="#8bbf30"/>
      <path id="Trazado_677977" data-name="Trazado 677977" d="M314.547,300.476s-6.074,2.157-4.92,9.871h1.822A9.995,9.995,0,0,1,314.547,300.476Z" fill="#90cc3a"/>
      <path id="Trazado_677978" data-name="Trazado 677978" d="M304.994,303.638s3.629.948,3.869,6.431l-1.013.167A8.364,8.364,0,0,0,304.994,303.638Z" fill="#8bbf30"/>
      <path id="Trazado_677979" data-name="Trazado 677979" d="M314.8,303.638s-3.629.948-3.871,6.431l1.013.167A8.366,8.366,0,0,1,314.8,303.638Z" fill="#8bbf30"/>
    </g>
    <g id="Grupo_936363" data-name="Grupo 936363">
      <path id="Trazado_677980" data-name="Trazado 677980" d="M448.784,300.053s6.074,2.157,4.92,9.871h-1.822A10,10,0,0,0,448.784,300.053Z" fill="#90cc3a"/>
      <path id="Trazado_677981" data-name="Trazado 677981" d="M457.769,297.762s-6.075,2.636-4.92,12.064h1.822A14.193,14.193,0,0,1,457.769,297.762Z" fill="#8bbf30"/>
      <path id="Trazado_677982" data-name="Trazado 677982" d="M458.308,300.053s-6.075,2.157-4.92,9.871h1.822A10,10,0,0,1,458.308,300.053Z" fill="#90cc3a"/>
      <path id="Trazado_677983" data-name="Trazado 677983" d="M448.755,303.215s3.629.948,3.869,6.432l-1.014.167A8.363,8.363,0,0,0,448.755,303.215Z" fill="#8bbf30"/>
      <path id="Trazado_677984" data-name="Trazado 677984" d="M458.563,303.215s-3.628.948-3.871,6.432l1.014.167A8.369,8.369,0,0,1,458.563,303.215Z" fill="#8bbf30"/>
    </g>
    <g id="Grupo_936366" data-name="Grupo 936366">
      <g id="Grupo_936365" data-name="Grupo 936365">
        <g id="Grupo_936364" data-name="Grupo 936364">
          <rect id="Rectángulo_329572" data-name="Rectángulo 329572" width="8.656" height="0.669" transform="translate(433.076 299.107)" fill="#27355c"/>
        </g>
      </g>
    </g>
    <g id="Grupo_936369" data-name="Grupo 936369">
      <g id="Grupo_936368" data-name="Grupo 936368">
        <g id="Grupo_936367" data-name="Grupo 936367">
          <rect id="Rectángulo_329573" data-name="Rectángulo 329573" width="4.773" height="0.668" transform="translate(436.455 296.921)" fill="#27355c"/>
        </g>
      </g>
    </g>
  </g>
</svg>
